<svg xmlns="http://www.w3.org/2000/svg" xmlns:xlink="http://www.w3.org/1999/xlink" width="500" zoomAndPan="magnify" viewBox="0 0 375 374.999991" height="500" preserveAspectRatio="xMidYMid meet" version="1.0"><defs><clipPath id="61e74e080e"><path d="M 143 249 L 180 249 L 180 259.875 L 143 259.875 Z M 143 249 " clip-rule="nonzero"/></clipPath><clipPath id="97c6d13b8f"><path d="M 195 249 L 232 249 L 232 259.875 L 195 259.875 Z M 195 249 " clip-rule="nonzero"/></clipPath><clipPath id="29781b3f4c"><path d="M 141 115.125 L 235 115.125 L 235 198 L 141 198 Z M 141 115.125 " clip-rule="nonzero"/></clipPath><clipPath id="47e09deb9a"><path d="M 0 11 L 375 11 L 375 371.582031 L 0 371.582031 Z M 0 11 " clip-rule="nonzero"/></clipPath></defs><g clip-path="url(#61e74e080e)"><path fill="#000000" d="M 143.558594 249.535156 L 179.746094 249.535156 L 179.746094 259.875 L 143.558594 259.875 Z M 143.558594 249.535156 " fill-opacity="1" fill-rule="nonzero"/></g><path fill="#000000" d="M 128.796875 181.554688 L 134.019531 197.21875 C 135.285156 195.695312 136.914062 194.609375 138.671875 193.9375 L 131.640625 172.84375 C 130.96875 170.800781 129.496094 169.199219 127.558594 168.292969 C 125.59375 167.390625 123.421875 167.339844 121.40625 168.140625 L 120.863281 168.347656 L 122.59375 174.34375 C 125.488281 175.867188 127.738281 178.402344 128.796875 181.554688 Z M 128.796875 181.554688 " fill-opacity="1" fill-rule="nonzero"/><path fill="#000000" d="M 148.726562 239.195312 L 148.726562 244.367188 L 174.574219 244.367188 L 174.574219 223.84375 C 174.574219 221.335938 173.359375 218.984375 171.320312 217.535156 L 146.011719 199.441406 C 143.453125 197.632812 139.914062 198.125 137.976562 200.578125 C 136.761719 202.078125 136.398438 204.015625 136.863281 205.773438 L 136.992188 206.1875 L 137.070312 206.421875 C 137.433594 207.351562 138.050781 208.203125 138.878906 208.875 L 158.085938 224.257812 C 159.222656 225.136719 159.402344 226.761719 158.5 227.875 C 157.621094 229.011719 155.992188 229.191406 154.878906 228.289062 L 135.648438 212.933594 C 133.789062 211.410156 132.519531 209.417969 131.902344 207.246094 L 123.886719 183.210938 C 123.164062 181.039062 121.535156 179.304688 119.46875 178.480469 C 117.582031 177.730469 115.511719 177.730469 113.652344 178.480469 L 113.109375 178.6875 L 124.429688 217.171875 C 124.871094 218.75 125.800781 220.09375 127.09375 221.101562 L 147.71875 237.15625 C 148.367188 237.644531 148.726562 238.394531 148.726562 239.195312 Z M 148.726562 239.195312 " fill-opacity="1" fill-rule="nonzero"/><path fill="#000000" d="M 261.347656 178.480469 C 259.488281 177.730469 257.417969 177.730469 255.53125 178.480469 C 253.464844 179.304688 251.835938 181.039062 251.113281 183.210938 L 243.074219 207.300781 C 242.480469 209.445312 241.210938 211.433594 239.351562 212.933594 L 220.121094 228.289062 C 219.007812 229.191406 217.378906 229.011719 216.5 227.875 C 215.597656 226.761719 215.777344 225.136719 216.914062 224.257812 L 236.121094 208.875 C 236.921875 208.230469 237.542969 207.402344 237.902344 206.472656 C 237.929688 206.371094 237.957031 206.265625 238.007812 206.164062 C 238.007812 206.136719 238.109375 205.878906 238.109375 205.828125 L 238.109375 205.773438 C 238.601562 204.015625 238.238281 202.078125 237.023438 200.578125 C 235.0625 198.125 231.546875 197.632812 228.988281 199.441406 L 203.679688 217.535156 C 201.640625 218.984375 200.425781 221.335938 200.425781 223.84375 L 200.425781 244.367188 L 226.273438 244.367188 L 226.273438 239.195312 C 226.273438 238.394531 226.632812 237.644531 227.28125 237.15625 L 247.90625 221.101562 C 249.199219 220.09375 250.128906 218.75 250.570312 217.171875 L 261.890625 178.6875 Z M 261.347656 178.480469 " fill-opacity="1" fill-rule="nonzero"/><path fill="#000000" d="M 240.980469 197.21875 L 246.203125 181.554688 C 247.261719 178.402344 249.511719 175.867188 252.40625 174.316406 L 254.136719 168.347656 L 253.59375 168.140625 C 251.578125 167.339844 249.40625 167.390625 247.441406 168.292969 C 245.503906 169.199219 244.03125 170.800781 243.359375 172.871094 L 236.328125 193.9375 C 238.085938 194.609375 239.714844 195.695312 240.980469 197.21875 Z M 240.980469 197.21875 " fill-opacity="1" fill-rule="nonzero"/><g clip-path="url(#97c6d13b8f)"><path fill="#000000" d="M 195.253906 249.535156 L 231.441406 249.535156 L 231.441406 259.875 L 195.253906 259.875 Z M 195.253906 249.535156 " fill-opacity="1" fill-rule="nonzero"/></g><g clip-path="url(#29781b3f4c)"><path fill="#000000" d="M 234.027344 144.59375 L 234.027344 141.59375 C 234.027344 126.964844 222.164062 115.125 207.558594 115.125 L 206.238281 115.125 C 199.210938 115.125 192.488281 117.917969 187.527344 122.878906 C 182.5625 117.917969 175.816406 115.125 168.8125 115.125 L 167.492188 115.125 C 152.863281 115.125 141.023438 126.988281 141.023438 141.59375 L 141.023438 144.59375 C 141.023438 152.164062 144.257812 159.351562 149.917969 164.390625 L 187.550781 197.839844 L 225.1875 164.390625 C 230.847656 159.378906 234.078125 152.164062 234.078125 144.59375 Z M 203.007812 156.480469 L 192.667969 156.480469 L 192.667969 166.820312 L 182.332031 166.820312 L 182.332031 156.480469 L 171.992188 156.480469 L 171.992188 146.144531 L 182.332031 146.144531 L 182.332031 135.804688 L 192.667969 135.804688 L 192.667969 146.144531 L 203.007812 146.144531 Z M 203.007812 156.480469 " fill-opacity="1" fill-rule="nonzero"/></g><path fill="#f2c94f" d="M 104.539062 111.496094 C 104.539062 111.496094 87.828125 101.582031 78.195312 87.707031 C 68.5625 73.832031 72.984375 48.300781 72.984375 48.300781 C 72.984375 48.300781 74.570312 29.082031 102.441406 17.335938 C 130.3125 5.585938 159.367188 18.039062 167.359375 22.578125 C 175.355469 27.117188 185 43.796875 187.648438 55.996094 C 190.300781 68.195312 183.847656 83.746094 183.847656 83.746094 L 132.863281 96.773438 Z M 104.539062 111.496094 " fill-opacity="1" fill-rule="nonzero"/><g clip-path="url(#47e09deb9a)"><path fill="#f9a59a" d="M 122.808594 61.28125 L 122.808594 48.109375 C 125.492188 48.410156 128.066406 49.101562 130.542969 50.183594 C 130.925781 50.347656 131.324219 50.433594 131.742188 50.4375 C 132.160156 50.445312 132.5625 50.367188 132.949219 50.207031 C 133.335938 50.050781 133.675781 49.824219 133.96875 49.527344 C 134.265625 49.230469 134.492188 48.890625 134.648438 48.503906 L 134.953125 47.746094 C 135.113281 47.359375 135.195312 46.957031 135.199219 46.539062 C 135.207031 46.121094 135.132812 45.71875 134.980469 45.328125 C 134.828125 44.9375 134.609375 44.589844 134.324219 44.285156 C 134.039062 43.980469 133.707031 43.738281 133.328125 43.558594 C 129.976562 42.078125 126.46875 41.242188 122.808594 41.058594 L 122.808594 35.652344 C 122.808594 35.410156 122.761719 35.175781 122.667969 34.949219 C 122.574219 34.726562 122.441406 34.527344 122.269531 34.355469 C 122.097656 34.183594 121.898438 34.050781 121.675781 33.957031 C 121.449219 33.863281 121.214844 33.816406 120.972656 33.816406 L 119.300781 33.816406 C 119.058594 33.816406 118.824219 33.863281 118.597656 33.957031 C 118.371094 34.046875 118.171875 34.179688 118 34.351562 C 117.824219 34.523438 117.691406 34.722656 117.597656 34.949219 C 117.503906 35.175781 117.457031 35.410156 117.457031 35.652344 L 117.457031 41.1875 C 107.277344 42.164062 102.449219 47.96875 102.449219 54.628906 C 102.449219 63.695312 110.210938 66.042969 117.457031 67.804688 L 117.457031 80.851562 C 113.773438 80.511719 110.308594 79.457031 107.0625 77.683594 C 106.710938 77.484375 106.332031 77.367188 105.925781 77.328125 C 105.519531 77.285156 105.125 77.332031 104.738281 77.460938 C 104.355469 77.589844 104.011719 77.789062 103.710938 78.0625 C 103.410156 78.339844 103.175781 78.660156 103.015625 79.035156 L 102.78125 79.550781 C 102.582031 79.984375 102.46875 80.441406 102.445312 80.921875 C 102.417969 81.402344 102.480469 81.867188 102.628906 82.324219 C 102.78125 82.777344 103.007812 83.191406 103.316406 83.558594 C 103.621094 83.929688 103.984375 84.230469 104.40625 84.460938 C 108.511719 86.523438 112.863281 87.671875 117.453125 87.902344 L 117.453125 93.292969 C 117.457031 93.539062 117.503906 93.773438 117.597656 94 C 117.691406 94.226562 117.824219 94.425781 117.996094 94.597656 C 118.167969 94.769531 118.371094 94.902344 118.59375 95 C 118.820312 95.09375 119.054688 95.140625 119.300781 95.140625 L 120.972656 95.140625 C 121.214844 95.140625 121.449219 95.09375 121.675781 94.996094 C 121.898438 94.902344 122.097656 94.769531 122.269531 94.597656 C 122.441406 94.425781 122.574219 94.226562 122.667969 94 C 122.761719 93.773438 122.808594 93.539062 122.808594 93.292969 L 122.808594 87.832031 C 133.050781 86.789062 137.949219 81.042969 137.949219 74.390625 C 137.953125 65.324219 130.050781 63.042969 122.808594 61.28125 Z M 117.457031 59.90625 C 113.671875 58.800781 110.867188 57.371094 110.867188 54.234375 C 110.867188 51.363281 112.824219 49.011719 117.457031 48.300781 Z M 122.808594 80.71875 L 122.808594 69.171875 C 126.71875 70.285156 129.597656 71.78125 129.597656 74.984375 C 129.597656 77.785156 127.570312 80 122.808594 80.71875 Z M 374.96875 180.746094 C 374.96875 159.222656 356.816406 141.71875 334.492188 141.71875 C 331.070312 141.722656 327.699219 142.132812 324.378906 142.957031 L 318.269531 142.070312 C 314.417969 136.269531 310.132812 130.816406 305.402344 125.703125 C 306.804688 117.03125 312.574219 76.132812 296.914062 72.066406 C 282.703125 68.386719 268.046875 88.65625 263.886719 94.964844 C 255.953125 91.097656 247.742188 87.949219 239.257812 85.519531 C 233.609375 76.21875 226.238281 67.148438 218.035156 64.722656 C 214.988281 63.820312 210.171875 63.761719 204.476562 68.589844 C 200.996094 71.730469 198.082031 75.328125 195.742188 79.390625 C 193.167969 79.390625 190.609375 79.46875 188.074219 79.585938 C 188.378906 78.609375 188.65625 77.625 188.90625 76.632812 C 189.15625 75.640625 189.375 74.640625 189.566406 73.632812 C 189.757812 72.628906 189.917969 71.617188 190.050781 70.601562 C 190.179688 69.585938 190.28125 68.566406 190.351562 67.546875 C 190.425781 66.527344 190.464844 65.503906 190.476562 64.480469 C 190.488281 63.457031 190.472656 62.433594 190.421875 61.410156 C 190.375 60.386719 190.296875 59.367188 190.1875 58.347656 C 190.078125 57.332031 189.941406 56.316406 189.773438 55.308594 C 189.605469 54.296875 189.410156 53.292969 189.183594 52.292969 C 188.957031 51.296875 188.699219 50.304688 188.414062 49.320312 C 188.128906 48.339844 187.816406 47.363281 187.476562 46.398438 C 187.132812 45.433594 186.765625 44.480469 186.367188 43.535156 C 185.96875 42.59375 185.542969 41.664062 185.089844 40.742188 C 184.636719 39.824219 184.160156 38.921875 183.652344 38.03125 C 183.148438 37.140625 182.617188 36.265625 182.0625 35.40625 C 181.503906 34.546875 180.921875 33.703125 180.316406 32.878906 C 179.710938 32.054688 179.082031 31.246094 178.425781 30.460938 C 177.773438 29.671875 177.097656 28.902344 176.398438 28.152344 C 175.703125 27.40625 174.980469 26.679688 174.242188 25.972656 C 173.5 25.265625 172.738281 24.582031 171.957031 23.917969 C 171.175781 23.257812 170.375 22.617188 169.558594 22.003906 C 168.738281 21.390625 167.902344 20.796875 167.050781 20.234375 C 166.195312 19.667969 165.328125 19.125 164.441406 18.609375 C 163.554688 18.097656 162.65625 17.609375 161.742188 17.144531 C 160.828125 16.683594 159.902344 16.246094 158.964844 15.839844 C 158.023438 15.433594 157.074219 15.050781 156.113281 14.699219 C 155.152344 14.347656 154.179688 14.023438 153.199219 13.726562 C 152.21875 13.433594 151.230469 13.164062 150.234375 12.929688 C 149.238281 12.691406 148.238281 12.484375 147.230469 12.304688 C 146.21875 12.125 145.207031 11.976562 144.191406 11.855469 C 143.171875 11.738281 142.152344 11.648438 141.132812 11.589844 C 140.109375 11.527344 139.085938 11.5 138.0625 11.5 C 135.328125 11.5 132.613281 11.714844 129.914062 12.144531 C 127.214844 11.714844 124.5 11.5 121.765625 11.5 C 120.273438 11.5 118.78125 11.5625 117.292969 11.6875 C 115.808594 11.816406 114.328125 12.003906 112.855469 12.257812 C 111.382812 12.511719 109.925781 12.828125 108.480469 13.207031 C 107.039062 13.582031 105.613281 14.023438 104.207031 14.523438 C 102.796875 15.019531 101.414062 15.578125 100.058594 16.199219 C 98.699219 16.816406 97.367188 17.488281 96.066406 18.222656 C 94.765625 18.953125 93.496094 19.738281 92.261719 20.578125 C 91.027344 21.417969 89.832031 22.308594 88.675781 23.25 C 87.515625 24.191406 86.398438 25.183594 85.328125 26.21875 C 84.253906 27.257812 83.226562 28.335938 82.246094 29.460938 C 81.261719 30.585938 80.332031 31.753906 79.449219 32.957031 C 78.570312 34.160156 77.742188 35.402344 76.964844 36.675781 C 76.191406 37.953125 75.46875 39.257812 74.804688 40.597656 C 74.140625 41.933594 73.535156 43.296875 72.988281 44.683594 C 72.441406 46.074219 71.957031 47.480469 71.527344 48.914062 C 71.101562 50.34375 70.738281 51.789062 70.433594 53.25 C 70.128906 54.710938 69.890625 56.183594 69.710938 57.664062 C 69.535156 59.148438 69.421875 60.632812 69.371094 62.125 C 69.320312 63.617188 69.332031 65.109375 69.410156 66.597656 C 69.488281 68.089844 69.628906 69.574219 69.832031 71.054688 C 70.035156 72.53125 70.304688 74 70.632812 75.453125 C 70.960938 76.910156 71.355469 78.347656 71.804688 79.773438 C 72.257812 81.195312 72.769531 82.59375 73.34375 83.972656 C 73.914062 85.351562 74.546875 86.703125 75.234375 88.027344 C 75.921875 89.351562 76.664062 90.644531 77.460938 91.90625 C 78.261719 93.167969 79.113281 94.394531 80.015625 95.582031 C 80.917969 96.769531 81.871094 97.917969 82.871094 99.027344 C 83.871094 100.132812 84.917969 101.195312 86.011719 102.214844 C 87.101562 103.230469 88.234375 104.199219 89.410156 105.121094 C 90.585938 106.042969 91.796875 106.910156 93.046875 107.730469 C 94.296875 108.546875 95.578125 109.308594 96.890625 110.015625 C 98.207031 110.722656 99.546875 111.375 100.917969 111.96875 C 71.71875 135.414062 53.320312 169.484375 53.320312 207.34375 C 53.324219 213.527344 53.816406 219.667969 54.796875 225.773438 C 53.667969 226.628906 52.464844 227.359375 51.183594 227.96875 C 49.90625 228.574219 48.578125 229.046875 47.199219 229.378906 C 45.824219 229.710938 44.425781 229.902344 43.011719 229.945312 C 41.59375 229.992188 40.191406 229.890625 38.792969 229.648438 C 35.683594 217.726562 31.144531 210.632812 25.273438 208.566406 C 24.476562 208.296875 23.660156 208.117188 22.820312 208.035156 C 21.984375 207.949219 21.144531 207.960938 20.308594 208.066406 C 19.472656 208.171875 18.660156 208.367188 17.867188 208.65625 C 17.078125 208.945312 16.328125 209.320312 15.621094 209.78125 C 13.046875 210.605469 11.15625 212.824219 10.410156 216 C 9.023438 221.839844 11.433594 231.855469 22.191406 241.820312 C 21.464844 242.726562 19.496094 244.875 16.960938 245.070312 C 14.949219 245.234375 12.816406 244.109375 10.613281 241.757812 C 7.863281 238.804688 5.34375 237.835938 3.117188 238.867188 C 0.976562 239.875 0 242.476562 0.433594 246.007812 C 1.199219 252.328125 5.960938 259.492188 13.566406 260.972656 C 23.707031 262.949219 31.632812 256.894531 35.65625 252.828125 C 36.339844 252.136719 36.914062 251.507812 37.363281 250.980469 C 44.839844 253.113281 52.5625 251.921875 60.453125 247.429688 C 64.84375 259.34375 70.941406 270.308594 78.742188 280.328125 L 60.011719 317.886719 C 59.699219 318.523438 59.441406 319.179688 59.246094 319.859375 C 59.050781 320.539062 58.914062 321.230469 58.84375 321.933594 C 58.769531 322.640625 58.757812 323.34375 58.808594 324.050781 C 58.863281 324.753906 58.976562 325.453125 59.152344 326.136719 C 59.328125 326.824219 59.5625 327.488281 59.855469 328.128906 C 60.152344 328.773438 60.5 329.386719 60.902344 329.96875 C 61.308594 330.550781 61.757812 331.09375 62.257812 331.59375 C 62.757812 332.09375 63.296875 332.546875 63.878906 332.953125 L 77.957031 342.695312 C 78.488281 343.0625 79.042969 343.382812 79.628906 343.65625 C 80.210938 343.933594 80.8125 344.160156 81.433594 344.335938 C 82.050781 344.515625 82.683594 344.640625 83.324219 344.714844 C 83.960938 344.792969 84.605469 344.816406 85.25 344.785156 C 85.894531 344.757812 86.53125 344.675781 87.160156 344.542969 C 87.792969 344.410156 88.410156 344.230469 89.011719 343.996094 C 89.613281 343.765625 90.191406 343.484375 90.746094 343.160156 C 91.300781 342.832031 91.828125 342.460938 92.324219 342.050781 L 122.351562 317.019531 C 124.449219 318.144531 126.570312 319.207031 128.710938 320.242188 L 140.746094 357.292969 C 141.078125 358.324219 141.5625 359.277344 142.199219 360.15625 C 142.835938 361.03125 143.589844 361.789062 144.46875 362.425781 C 145.34375 363.0625 146.296875 363.546875 147.328125 363.878906 C 148.359375 364.214844 149.417969 364.378906 150.5 364.378906 L 165.023438 364.378906 C 165.695312 364.378906 166.363281 364.3125 167.023438 364.179688 C 167.683594 364.046875 168.324219 363.851562 168.945312 363.59375 C 169.566406 363.335938 170.160156 363.023438 170.71875 362.648438 C 171.277344 362.273438 171.796875 361.847656 172.273438 361.375 C 172.746094 360.898438 173.171875 360.378906 173.546875 359.820312 C 173.921875 359.261719 174.238281 358.671875 174.496094 358.050781 C 174.753906 357.429688 174.949219 356.789062 175.082031 356.128906 C 175.210938 355.46875 175.277344 354.800781 175.28125 354.128906 L 175.28125 333.960938 C 182.078125 334.84375 188.902344 335.285156 195.757812 335.289062 L 196.878906 335.289062 L 204.550781 362.917969 C 204.722656 363.539062 204.945312 364.144531 205.214844 364.726562 C 205.488281 365.3125 205.804688 365.871094 206.164062 366.402344 C 206.527344 366.9375 206.929688 367.4375 207.375 367.90625 C 207.816406 368.375 208.292969 368.800781 208.808594 369.191406 C 209.320312 369.582031 209.863281 369.929688 210.429688 370.230469 C 211 370.53125 211.589844 370.785156 212.203125 370.992188 C 212.8125 371.199219 213.433594 371.355469 214.070312 371.460938 C 214.707031 371.566406 215.347656 371.617188 215.992188 371.621094 L 233.117188 371.621094 C 233.828125 371.617188 234.527344 371.550781 235.226562 371.421875 C 235.921875 371.296875 236.601562 371.109375 237.265625 370.859375 C 237.925781 370.609375 238.5625 370.304688 239.171875 369.941406 C 239.777344 369.582031 240.351562 369.167969 240.886719 368.703125 C 241.421875 368.242188 241.910156 367.734375 242.355469 367.183594 C 242.800781 366.632812 243.191406 366.046875 243.535156 365.425781 C 243.875 364.804688 244.15625 364.160156 244.382812 363.488281 C 244.609375 362.820312 244.773438 362.132812 244.875 361.433594 L 250.007812 325.671875 C 253.652344 324.324219 257.214844 322.851562 260.617188 321.28125 C 261.097656 321.144531 261.550781 320.996094 262.023438 320.847656 L 329.453125 338.535156 C 330.167969 338.722656 330.898438 338.820312 331.640625 338.820312 C 332.367188 338.820312 333.078125 338.726562 333.78125 338.542969 C 334.484375 338.359375 335.152344 338.085938 335.785156 337.730469 C 336.417969 337.375 336.996094 336.945312 337.515625 336.441406 C 338.039062 335.933594 338.488281 335.371094 338.863281 334.75 L 347.078125 321.335938 C 347.347656 320.894531 347.578125 320.429688 347.761719 319.945312 C 347.949219 319.460938 348.089844 318.964844 348.183594 318.453125 C 348.277344 317.941406 348.328125 317.429688 348.328125 316.910156 C 348.328125 316.390625 348.28125 315.875 348.1875 315.363281 C 348.09375 314.855469 347.953125 314.355469 347.769531 313.871094 C 347.585938 313.386719 347.359375 312.921875 347.085938 312.476562 C 346.816406 312.035156 346.507812 311.621094 346.164062 311.234375 C 345.816406 310.84375 345.441406 310.492188 345.027344 310.175781 L 320.648438 291.289062 C 357.679688 261.203125 357.210938 225.324219 355.945312 213.832031 C 357.378906 212.980469 358.75 212.042969 360.058594 211.015625 C 361.371094 209.992188 362.609375 208.886719 363.777344 207.699219 C 364.945312 206.515625 366.035156 205.261719 367.042969 203.933594 C 368.050781 202.609375 368.96875 201.226562 369.796875 199.785156 C 370.628906 198.339844 371.363281 196.851562 372 195.3125 C 372.636719 193.777344 373.175781 192.203125 373.609375 190.597656 C 374.046875 188.992188 374.378906 187.367188 374.605469 185.714844 C 374.832031 184.066406 374.953125 182.410156 374.96875 180.746094 Z M 118.371094 99.976562 C 117.699219 99.941406 117.027344 99.890625 116.359375 99.820312 C 115.691406 99.75 115.027344 99.660156 114.363281 99.550781 C 113.699219 99.445312 113.039062 99.320312 112.382812 99.175781 C 111.726562 99.03125 111.074219 98.867188 110.429688 98.6875 C 109.78125 98.507812 109.140625 98.308594 108.503906 98.09375 C 107.867188 97.875 107.238281 97.640625 106.613281 97.390625 C 105.992188 97.140625 105.375 96.871094 104.765625 96.585938 C 104.160156 96.300781 103.558594 95.996094 102.96875 95.675781 C 102.375 95.359375 101.792969 95.023438 101.222656 94.671875 C 100.648438 94.320312 100.085938 93.953125 99.535156 93.570312 C 98.980469 93.1875 98.441406 92.789062 97.910156 92.375 C 97.382812 91.964844 96.863281 91.535156 96.355469 91.09375 C 95.851562 90.652344 95.355469 90.195312 94.875 89.726562 C 94.394531 89.257812 93.929688 88.773438 93.472656 88.277344 C 93.019531 87.785156 92.582031 87.277344 92.15625 86.757812 C 91.730469 86.234375 91.320312 85.703125 90.921875 85.160156 C 90.527344 84.621094 90.148438 84.066406 89.78125 83.5 C 89.417969 82.9375 89.066406 82.363281 88.734375 81.78125 C 88.402344 81.195312 88.085938 80.605469 87.785156 80.003906 C 87.484375 79.402344 87.203125 78.792969 86.933594 78.175781 C 86.667969 77.558594 86.421875 76.9375 86.1875 76.304688 C 85.957031 75.675781 85.742188 75.039062 85.546875 74.394531 C 85.351562 73.753906 85.175781 73.105469 85.015625 72.453125 C 84.855469 71.800781 84.714844 71.144531 84.589844 70.484375 C 84.46875 69.820312 84.363281 69.160156 84.277344 68.492188 C 84.191406 67.828125 84.121094 67.15625 84.074219 66.488281 C 84.023438 65.816406 83.996094 65.148438 83.984375 64.476562 C 83.972656 63.804688 83.980469 63.132812 84.003906 62.460938 C 84.03125 61.789062 84.074219 61.121094 84.136719 60.449219 C 84.203125 59.78125 84.285156 59.117188 84.382812 58.449219 C 84.484375 57.785156 84.601562 57.125 84.742188 56.46875 C 84.878906 55.808594 85.03125 55.15625 85.207031 54.507812 C 85.378906 53.859375 85.570312 53.214844 85.78125 52.578125 C 85.992188 51.9375 86.21875 51.308594 86.464844 50.679688 C 86.707031 50.054688 86.96875 49.4375 87.25 48.824219 C 87.527344 48.214844 87.824219 47.613281 88.136719 47.019531 C 88.449219 46.421875 88.78125 45.835938 89.125 45.261719 C 89.46875 44.683594 89.832031 44.117188 90.207031 43.5625 C 90.585938 43.007812 90.976562 42.460938 91.386719 41.925781 C 91.792969 41.394531 92.214844 40.871094 92.652344 40.359375 C 93.089844 39.847656 93.539062 39.351562 94.003906 38.867188 C 94.46875 38.378906 94.945312 37.90625 95.433594 37.449219 C 95.925781 36.988281 96.429688 36.542969 96.945312 36.113281 C 97.460938 35.683594 97.988281 35.265625 98.527344 34.863281 C 99.066406 34.460938 99.613281 34.078125 100.175781 33.707031 C 100.734375 33.335938 101.304688 32.980469 101.886719 32.640625 C 102.464844 32.300781 103.054688 31.976562 103.652344 31.671875 C 104.25 31.363281 104.855469 31.074219 105.46875 30.804688 C 106.085938 30.53125 106.707031 30.273438 107.332031 30.035156 C 107.960938 29.800781 108.597656 29.578125 109.238281 29.375 C 109.878906 29.171875 110.523438 28.988281 111.175781 28.820312 C 111.824219 28.65625 112.480469 28.507812 113.140625 28.375 C 113.800781 28.246094 114.460938 28.132812 115.128906 28.042969 C 115.792969 27.949219 116.460938 27.875 117.128906 27.816406 C 117.800781 27.761719 118.46875 27.722656 119.140625 27.703125 C 119.8125 27.6875 120.484375 27.6875 121.15625 27.703125 C 121.828125 27.722656 122.5 27.761719 123.167969 27.816406 C 123.839844 27.871094 124.507812 27.949219 125.171875 28.039062 C 125.835938 28.132812 126.5 28.246094 127.160156 28.375 C 127.820312 28.507812 128.472656 28.65625 129.125 28.820312 C 129.777344 28.988281 130.421875 29.171875 131.0625 29.375 C 131.703125 29.578125 132.335938 29.796875 132.964844 30.035156 C 133.59375 30.273438 134.214844 30.53125 134.828125 30.800781 C 135.445312 31.074219 136.050781 31.363281 136.648438 31.671875 C 137.246094 31.976562 137.835938 32.300781 138.414062 32.640625 C 138.996094 32.976562 139.566406 33.332031 140.125 33.703125 C 140.6875 34.074219 141.234375 34.460938 141.773438 34.863281 C 142.3125 35.265625 142.839844 35.679688 143.355469 36.113281 C 143.871094 36.542969 144.375 36.988281 144.863281 37.445312 C 145.355469 37.90625 145.832031 38.378906 146.296875 38.863281 C 146.761719 39.347656 147.210938 39.847656 147.648438 40.359375 C 148.085938 40.867188 148.507812 41.390625 148.914062 41.925781 C 149.324219 42.460938 149.714844 43.003906 150.09375 43.5625 C 150.46875 44.117188 150.832031 44.683594 151.175781 45.257812 C 151.519531 45.835938 151.851562 46.421875 152.164062 47.015625 C 152.476562 47.609375 152.773438 48.210938 153.050781 48.824219 C 153.332031 49.433594 153.59375 50.054688 153.839844 50.679688 C 154.082031 51.304688 154.308594 51.9375 154.519531 52.574219 C 154.730469 53.214844 154.921875 53.855469 155.09375 54.503906 C 155.269531 55.15625 155.425781 55.808594 155.5625 56.464844 C 155.699219 57.125 155.816406 57.785156 155.917969 58.449219 C 156.019531 59.113281 156.101562 59.78125 156.164062 60.449219 C 156.226562 61.117188 156.269531 61.789062 156.296875 62.457031 C 156.324219 63.128906 156.332031 63.800781 156.320312 64.472656 C 156.308594 65.144531 156.277344 65.816406 156.226562 66.484375 C 156.179688 67.15625 156.113281 67.824219 156.027344 68.488281 C 155.941406 69.15625 155.835938 69.820312 155.710938 70.480469 C 155.589844 71.140625 155.449219 71.796875 155.289062 72.449219 C 155.128906 73.101562 154.949219 73.75 154.753906 74.394531 C 154.558594 75.035156 154.34375 75.671875 154.113281 76.304688 C 153.882812 76.933594 153.632812 77.558594 153.367188 78.175781 C 153.101562 78.792969 152.820312 79.398438 152.519531 80 C 152.21875 80.601562 151.902344 81.195312 151.570312 81.777344 C 151.234375 82.363281 150.886719 82.9375 150.523438 83.5 C 150.15625 84.0625 149.777344 84.617188 149.378906 85.160156 C 148.984375 85.703125 148.574219 86.234375 148.148438 86.753906 C 137.738281 90.070312 127.8125 94.476562 118.371094 99.976562 Z M 185.863281 63.902344 C 185.867188 69.398438 184.941406 74.734375 183.085938 79.910156 C 179.089844 80.222656 175.140625 80.6875 171.238281 81.300781 C 171.90625 79.386719 172.457031 77.4375 172.898438 75.457031 C 173.269531 75.46875 173.691406 75.46875 174.164062 75.46875 C 175.660156 75.46875 177.699219 75.429688 180.492188 75.386719 C 180.675781 75.382812 180.851562 75.34375 181.019531 75.269531 C 181.1875 75.199219 181.335938 75.097656 181.460938 74.964844 C 181.589844 74.832031 181.6875 74.683594 181.753906 74.511719 C 181.820312 74.34375 181.851562 74.167969 181.851562 73.984375 C 181.84375 73.800781 181.804688 73.625 181.730469 73.460938 C 181.65625 73.292969 181.554688 73.144531 181.421875 73.019531 C 181.292969 72.890625 181.144531 72.792969 180.972656 72.722656 C 180.804688 72.652344 180.628906 72.617188 180.445312 72.617188 C 177.917969 72.664062 175.222656 72.691406 173.433594 72.691406 C 173.925781 69.78125 174.175781 66.851562 174.183594 63.902344 C 174.183594 63.347656 174.164062 62.800781 174.144531 62.257812 L 185.820312 62.257812 C 185.835938 62.804688 185.863281 63.347656 185.863281 63.902344 Z M 170.636719 28.972656 C 172.699219 30.898438 174.578125 32.992188 176.277344 35.246094 C 179.085938 38.984375 181.300781 43.046875 182.917969 47.433594 L 177.449219 47.433594 C 177.265625 47.433594 177.089844 47.46875 176.921875 47.539062 C 176.75 47.609375 176.601562 47.707031 176.472656 47.839844 C 176.339844 47.96875 176.242188 48.117188 176.171875 48.285156 C 176.101562 48.457031 176.066406 48.632812 176.066406 48.816406 C 176.066406 49 176.101562 49.175781 176.171875 49.347656 C 176.242188 49.515625 176.339844 49.664062 176.472656 49.792969 C 176.601562 49.925781 176.75 50.023438 176.921875 50.09375 C 177.089844 50.164062 177.265625 50.199219 177.449219 50.199219 L 183.855469 50.199219 C 184.765625 53.234375 185.367188 56.332031 185.652344 59.488281 L 173.988281 59.488281 C 173.96875 59.230469 173.941406 58.972656 173.921875 58.714844 C 173.867188 58.214844 173.8125 57.726562 173.757812 57.238281 C 173.71875 56.996094 173.703125 56.765625 173.664062 56.535156 C 173.570312 55.898438 173.480469 55.261719 173.367188 54.636719 C 173.351562 54.558594 173.339844 54.484375 173.332031 54.40625 C 173.203125 53.703125 173.054688 53.011719 172.898438 52.308594 C 172.851562 52.105469 172.804688 51.894531 172.75 51.691406 C 172.636719 51.199219 172.519531 50.710938 172.390625 50.230469 C 172.324219 49.984375 172.257812 49.742188 172.1875 49.503906 C 172.054688 49.042969 171.917969 48.582031 171.78125 48.128906 C 171.703125 47.898438 171.640625 47.679688 171.566406 47.445312 C 171.382812 46.902344 171.199219 46.355469 170.996094 45.824219 C 170.957031 45.703125 170.910156 45.574219 170.875 45.453125 C 170.625 44.808594 170.367188 44.160156 170.101562 43.515625 C 170.023438 43.332031 169.941406 43.148438 169.859375 42.960938 C 169.65625 42.5 169.460938 42.046875 169.25 41.597656 C 169.140625 41.367188 169.039062 41.148438 168.929688 40.921875 C 168.726562 40.496094 168.511719 40.09375 168.300781 39.675781 C 168.191406 39.464844 168.074219 39.242188 167.960938 39.03125 C 167.773438 38.671875 167.570312 38.3125 167.367188 37.960938 L 174.355469 37.960938 C 174.539062 37.960938 174.714844 37.925781 174.882812 37.855469 C 175.054688 37.785156 175.203125 37.6875 175.332031 37.554688 C 175.460938 37.425781 175.5625 37.277344 175.632812 37.105469 C 175.703125 36.9375 175.738281 36.761719 175.738281 36.578125 C 175.742188 36.292969 175.660156 36.035156 175.5 35.800781 C 175.226562 35.394531 174.84375 35.191406 174.355469 35.191406 L 165.691406 35.191406 C 165.644531 35.117188 165.597656 35.042969 165.550781 34.980469 C 165.277344 34.566406 165 34.152344 164.714844 33.734375 C 164.5625 33.53125 164.414062 33.320312 164.269531 33.117188 L 163.46875 32.039062 L 162.996094 31.429688 C 162.691406 31.054688 162.386719 30.671875 162.074219 30.304688 C 161.945312 30.140625 161.816406 29.980469 161.6875 29.824219 C 161.445312 29.546875 161.207031 29.28125 160.964844 29.015625 C 164.878906 28.964844 168.550781 28.945312 170.636719 28.972656 Z M 158.84375 20.871094 C 161.867188 22.34375 164.707031 24.113281 167.359375 26.179688 C 165.21875 26.191406 162.3125 26.21875 158.347656 26.285156 L 158.335938 26.273438 C 158.03125 25.96875 157.71875 25.675781 157.394531 25.378906 C 157.191406 25.195312 156.996094 25.011719 156.796875 24.835938 C 156.453125 24.53125 156.113281 24.234375 155.761719 23.9375 C 155.578125 23.777344 155.402344 23.621094 155.21875 23.464844 C 154.699219 23.042969 154.175781 22.625 153.640625 22.21875 C 153.488281 22.101562 153.335938 21.988281 153.179688 21.878906 C 152.78125 21.574219 152.375 21.28125 151.96875 20.992188 C 151.90625 20.957031 151.859375 20.910156 151.804688 20.871094 Z M 151.691406 18.105469 L 147.796875 18.105469 C 147.675781 18.105469 147.558594 18.125 147.445312 18.160156 C 146.945312 17.882812 146.449219 17.605469 145.941406 17.347656 C 145.785156 17.265625 145.617188 17.191406 145.460938 17.117188 C 145.054688 16.914062 144.648438 16.703125 144.234375 16.507812 C 146.761719 16.839844 149.25 17.371094 151.691406 18.105469 Z M 73.953125 63.902344 C 73.957031 62.335938 74.035156 60.777344 74.1875 59.21875 C 74.34375 57.660156 74.574219 56.117188 74.882812 54.582031 C 75.1875 53.046875 75.570312 51.53125 76.027344 50.035156 C 76.480469 48.535156 77.007812 47.066406 77.609375 45.621094 C 78.207031 44.175781 78.878906 42.761719 79.617188 41.382812 C 80.355469 40.003906 81.160156 38.664062 82.03125 37.363281 C 82.898438 36.0625 83.832031 34.804688 84.824219 33.597656 C 85.816406 32.386719 86.867188 31.230469 87.976562 30.121094 C 89.082031 29.015625 90.238281 27.96875 91.449219 26.972656 C 92.660156 25.980469 93.914062 25.050781 95.21875 24.179688 C 96.519531 23.3125 97.859375 22.507812 99.238281 21.769531 C 100.621094 21.03125 102.03125 20.363281 103.476562 19.761719 C 104.925781 19.164062 106.394531 18.636719 107.894531 18.179688 C 109.390625 17.726562 110.90625 17.34375 112.441406 17.039062 C 113.976562 16.730469 115.523438 16.5 117.082031 16.34375 C 118.636719 16.191406 120.199219 16.113281 121.765625 16.109375 C 124.371094 16.105469 126.960938 16.320312 129.535156 16.746094 C 130.921875 16.96875 132.292969 17.253906 133.65625 17.597656 C 135.015625 17.941406 136.359375 18.347656 137.683594 18.808594 C 139.011719 19.273438 140.3125 19.792969 141.59375 20.371094 C 142.871094 20.949219 144.121094 21.585938 145.34375 22.273438 C 146.566406 22.960938 147.757812 23.703125 148.914062 24.5 C 150.074219 25.292969 151.191406 26.136719 152.277344 27.03125 C 153.359375 27.925781 154.398438 28.863281 155.398438 29.847656 C 156.398438 30.835938 157.351562 31.863281 158.261719 32.933594 C 159.167969 34.003906 160.027344 35.109375 160.839844 36.257812 C 161.648438 37.402344 162.40625 38.582031 163.113281 39.796875 C 163.820312 41.007812 164.472656 42.25 165.066406 43.523438 C 165.664062 44.792969 166.203125 46.089844 166.683594 47.40625 C 167.164062 48.726562 167.585938 50.0625 167.949219 51.417969 C 168.3125 52.773438 168.613281 54.144531 168.855469 55.527344 C 169.097656 56.910156 169.277344 58.300781 169.398438 59.699219 C 169.515625 61.097656 169.574219 62.496094 169.566406 63.902344 C 169.566406 64.886719 169.53125 65.867188 169.476562 66.84375 C 169.410156 67.941406 169.300781 69.03125 169.152344 70.109375 C 168.613281 74.289062 167.539062 78.328125 165.929688 82.222656 C 161.390625 83.097656 156.941406 84.164062 152.578125 85.414062 C 153.347656 84.253906 154.054688 83.058594 154.695312 81.824219 C 155.335938 80.585938 155.910156 79.320312 156.417969 78.023438 C 156.921875 76.726562 157.355469 75.40625 157.722656 74.0625 C 158.085938 72.722656 158.375 71.363281 158.59375 69.988281 C 158.8125 68.613281 158.953125 67.230469 159.023438 65.839844 C 159.09375 64.449219 159.089844 63.058594 159.007812 61.667969 C 158.929688 60.28125 158.773438 58.898438 158.546875 57.527344 C 158.316406 56.152344 158.015625 54.796875 157.640625 53.457031 C 157.265625 52.113281 156.824219 50.796875 156.308594 49.503906 C 155.792969 48.210938 155.207031 46.949219 154.554688 45.71875 C 153.90625 44.488281 153.191406 43.296875 152.410156 42.144531 C 151.632812 40.992188 150.792969 39.882812 149.894531 38.820312 C 148.996094 37.757812 148.042969 36.742188 147.035156 35.78125 C 146.03125 34.820312 144.972656 33.917969 143.871094 33.070312 C 142.765625 32.222656 141.617188 31.433594 140.429688 30.710938 C 139.242188 29.984375 138.015625 29.328125 136.757812 28.734375 C 135.5 28.140625 134.210938 27.617188 132.894531 27.160156 C 131.578125 26.707031 130.242188 26.324219 128.886719 26.011719 C 127.527344 25.699219 126.160156 25.464844 124.777344 25.296875 C 123.394531 25.132812 122.007812 25.042969 120.613281 25.027344 C 119.222656 25.015625 117.832031 25.074219 116.449219 25.207031 C 115.0625 25.339844 113.6875 25.546875 112.324219 25.828125 C 110.960938 26.109375 109.617188 26.464844 108.289062 26.890625 C 106.964844 27.316406 105.664062 27.8125 104.394531 28.375 C 103.121094 28.941406 101.882812 29.574219 100.679688 30.273438 C 99.472656 30.96875 98.308594 31.730469 97.1875 32.554688 C 96.066406 33.378906 94.988281 34.257812 93.960938 35.195312 C 92.933594 36.136719 91.957031 37.125 91.035156 38.167969 C 90.117188 39.210938 89.253906 40.300781 88.449219 41.4375 C 87.644531 42.574219 86.902344 43.75 86.222656 44.964844 C 85.546875 46.179688 84.933594 47.429688 84.390625 48.710938 C 83.847656 49.992188 83.371094 51.296875 82.96875 52.628906 C 82.566406 53.964844 82.234375 55.3125 81.976562 56.679688 C 81.714844 58.046875 81.53125 59.425781 81.421875 60.8125 C 81.308594 62.199219 81.273438 63.589844 81.3125 64.980469 C 81.351562 66.371094 81.464844 67.757812 81.652344 69.136719 C 81.839844 70.515625 82.101562 71.882812 82.433594 73.234375 C 82.769531 74.585938 83.171875 75.914062 83.652344 77.222656 C 84.128906 78.527344 84.671875 79.808594 85.289062 81.054688 C 85.902344 82.304688 86.582031 83.519531 87.324219 84.695312 C 88.070312 85.871094 88.875 87.003906 89.742188 88.09375 C 90.609375 89.183594 91.53125 90.222656 92.507812 91.214844 C 93.484375 92.203125 94.515625 93.140625 95.59375 94.019531 C 96.671875 94.898438 97.792969 95.71875 98.960938 96.480469 C 100.128906 97.238281 101.332031 97.933594 102.574219 98.566406 C 103.8125 99.195312 105.085938 99.757812 106.386719 100.25 C 107.6875 100.746094 109.011719 101.167969 110.359375 101.519531 C 111.707031 101.871094 113.070312 102.148438 114.445312 102.355469 C 111.246094 104.359375 108.140625 106.472656 105.136719 108.703125 C 102.863281 107.859375 100.667969 106.84375 98.546875 105.667969 C 96.429688 104.488281 94.410156 103.15625 92.492188 101.667969 C 90.578125 100.183594 88.785156 98.5625 87.113281 96.804688 C 85.445312 95.046875 83.917969 93.171875 82.53125 91.179688 C 81.148438 89.191406 79.917969 87.109375 78.851562 84.929688 C 77.78125 82.753906 76.886719 80.511719 76.15625 78.195312 C 75.429688 75.882812 74.882812 73.53125 74.511719 71.132812 C 74.144531 68.738281 73.957031 66.328125 73.953125 63.902344 Z M 73.953125 63.902344 " fill-opacity="1" fill-rule="nonzero"/><path fill="#7c1d21" d="M 374.96875 180.746094 C 374.96875 159.222656 356.816406 141.71875 334.492188 141.71875 C 331.070312 141.722656 327.699219 142.132812 324.378906 142.957031 L 318.269531 142.070312 C 314.417969 136.269531 310.132812 130.816406 305.402344 125.703125 C 306.804688 117.03125 312.574219 76.132812 296.914062 72.066406 C 282.703125 68.386719 268.046875 88.65625 263.886719 94.964844 C 255.953125 91.097656 247.742188 87.949219 239.257812 85.519531 C 233.609375 76.21875 226.238281 67.148438 218.035156 64.722656 C 214.988281 63.820312 210.171875 63.761719 204.476562 68.589844 C 200.996094 71.730469 198.082031 75.328125 195.742188 79.390625 C 193.167969 79.390625 190.609375 79.46875 188.074219 79.585938 C 188.378906 78.609375 188.65625 77.625 188.90625 76.632812 C 189.15625 75.640625 189.375 74.640625 189.566406 73.632812 C 189.757812 72.628906 189.917969 71.617188 190.050781 70.601562 C 190.179688 69.585938 190.28125 68.566406 190.351562 67.546875 C 190.425781 66.527344 190.464844 65.503906 190.476562 64.480469 C 190.488281 63.457031 190.472656 62.433594 190.421875 61.410156 C 190.375 60.386719 190.296875 59.367188 190.1875 58.347656 C 190.078125 57.332031 189.941406 56.316406 189.773438 55.308594 C 189.605469 54.296875 189.410156 53.292969 189.183594 52.292969 C 188.957031 51.296875 188.699219 50.304688 188.414062 49.320312 C 188.128906 48.339844 187.816406 47.363281 187.476562 46.398438 C 187.132812 45.433594 186.765625 44.480469 186.367188 43.535156 C 185.96875 42.59375 185.542969 41.664062 185.089844 40.742188 C 184.636719 39.824219 184.160156 38.921875 183.652344 38.03125 C 183.148438 37.140625 182.617188 36.265625 182.0625 35.40625 C 181.503906 34.546875 180.921875 33.703125 180.316406 32.878906 C 179.710938 32.054688 179.082031 31.246094 178.425781 30.460938 C 177.773438 29.671875 177.097656 28.902344 176.398438 28.152344 C 175.703125 27.40625 174.980469 26.679688 174.242188 25.972656 C 173.5 25.265625 172.738281 24.582031 171.957031 23.917969 C 171.175781 23.257812 170.375 22.617188 169.558594 22.003906 C 168.738281 21.390625 167.902344 20.796875 167.050781 20.234375 C 166.195312 19.667969 165.328125 19.125 164.441406 18.609375 C 163.554688 18.097656 162.65625 17.609375 161.742188 17.144531 C 160.828125 16.683594 159.902344 16.246094 158.964844 15.839844 C 158.023438 15.433594 157.074219 15.050781 156.113281 14.699219 C 155.152344 14.347656 154.179688 14.023438 153.199219 13.726562 C 152.21875 13.433594 151.230469 13.164062 150.234375 12.929688 C 149.238281 12.691406 148.238281 12.484375 147.230469 12.304688 C 146.21875 12.125 145.207031 11.976562 144.191406 11.855469 C 143.171875 11.738281 142.152344 11.648438 141.132812 11.589844 C 140.109375 11.527344 139.085938 11.5 138.0625 11.5 C 135.328125 11.5 132.613281 11.714844 129.914062 12.144531 C 127.214844 11.714844 124.5 11.5 121.765625 11.5 C 120.273438 11.5 118.78125 11.5625 117.292969 11.6875 C 115.808594 11.816406 114.328125 12.003906 112.855469 12.257812 C 111.382812 12.511719 109.925781 12.828125 108.480469 13.207031 C 107.039062 13.582031 105.613281 14.023438 104.207031 14.523438 C 102.796875 15.019531 101.414062 15.578125 100.058594 16.199219 C 98.699219 16.816406 97.367188 17.488281 96.066406 18.222656 C 94.765625 18.953125 93.496094 19.738281 92.261719 20.578125 C 91.027344 21.417969 89.832031 22.308594 88.675781 23.25 C 87.515625 24.191406 86.398438 25.183594 85.328125 26.21875 C 84.253906 27.257812 83.226562 28.335938 82.246094 29.460938 C 81.261719 30.585938 80.332031 31.753906 79.449219 32.957031 C 78.570312 34.160156 77.742188 35.402344 76.964844 36.675781 C 76.191406 37.953125 75.46875 39.257812 74.804688 40.597656 C 74.140625 41.933594 73.535156 43.296875 72.988281 44.683594 C 72.441406 46.074219 71.957031 47.480469 71.527344 48.914062 C 71.101562 50.34375 70.738281 51.789062 70.433594 53.25 C 70.128906 54.710938 69.890625 56.183594 69.710938 57.664062 C 69.535156 59.148438 69.421875 60.632812 69.371094 62.125 C 69.320312 63.617188 69.332031 65.109375 69.410156 66.597656 C 69.488281 68.089844 69.628906 69.574219 69.832031 71.054688 C 70.035156 72.53125 70.304688 74 70.632812 75.453125 C 70.960938 76.910156 71.355469 78.347656 71.804688 79.773438 C 72.257812 81.195312 72.769531 82.59375 73.34375 83.972656 C 73.914062 85.351562 74.546875 86.703125 75.234375 88.027344 C 75.921875 89.351562 76.664062 90.644531 77.460938 91.90625 C 78.261719 93.167969 79.113281 94.394531 80.015625 95.582031 C 80.917969 96.769531 81.871094 97.917969 82.871094 99.027344 C 83.871094 100.132812 84.917969 101.195312 86.011719 102.214844 C 87.101562 103.230469 88.234375 104.199219 89.410156 105.121094 C 90.585938 106.042969 91.796875 106.910156 93.046875 107.730469 C 94.296875 108.546875 95.578125 109.308594 96.890625 110.015625 C 98.207031 110.722656 99.546875 111.375 100.917969 111.96875 C 71.71875 135.414062 53.320312 169.484375 53.320312 207.34375 C 53.324219 213.527344 53.816406 219.667969 54.796875 225.773438 C 53.667969 226.628906 52.464844 227.359375 51.183594 227.96875 C 49.90625 228.574219 48.578125 229.046875 47.199219 229.378906 C 45.824219 229.710938 44.425781 229.902344 43.011719 229.945312 C 41.59375 229.992188 40.191406 229.890625 38.792969 229.648438 C 35.683594 217.726562 31.144531 210.632812 25.273438 208.566406 C 24.476562 208.296875 23.660156 208.117188 22.820312 208.035156 C 21.984375 207.949219 21.144531 207.960938 20.308594 208.066406 C 19.472656 208.171875 18.660156 208.367188 17.867188 208.65625 C 17.078125 208.945312 16.328125 209.320312 15.621094 209.78125 C 13.046875 210.605469 11.15625 212.824219 10.410156 216 C 9.023438 221.839844 11.433594 231.855469 22.191406 241.820312 C 21.464844 242.726562 19.496094 244.875 16.960938 245.070312 C 14.949219 245.234375 12.816406 244.109375 10.613281 241.757812 C 7.863281 238.804688 5.34375 237.835938 3.117188 238.867188 C 0.976562 239.875 0 242.476562 0.433594 246.007812 C 1.199219 252.328125 5.960938 259.492188 13.566406 260.972656 C 23.707031 262.949219 31.632812 256.894531 35.65625 252.828125 C 36.339844 252.136719 36.914062 251.507812 37.363281 250.980469 C 44.839844 253.113281 52.5625 251.921875 60.453125 247.429688 C 64.84375 259.34375 70.941406 270.308594 78.742188 280.328125 L 60.011719 317.886719 C 59.699219 318.523438 59.441406 319.179688 59.246094 319.859375 C 59.050781 320.539062 58.914062 321.230469 58.84375 321.933594 C 58.769531 322.640625 58.757812 323.34375 58.808594 324.050781 C 58.863281 324.753906 58.976562 325.453125 59.152344 326.136719 C 59.328125 326.824219 59.5625 327.488281 59.855469 328.128906 C 60.152344 328.773438 60.5 329.386719 60.902344 329.96875 C 61.308594 330.550781 61.757812 331.09375 62.257812 331.59375 C 62.757812 332.09375 63.296875 332.546875 63.878906 332.953125 L 77.957031 342.695312 C 78.488281 343.0625 79.042969 343.382812 79.628906 343.65625 C 80.210938 343.933594 80.8125 344.160156 81.433594 344.335938 C 82.050781 344.515625 82.683594 344.640625 83.324219 344.714844 C 83.960938 344.792969 84.605469 344.816406 85.25 344.785156 C 85.894531 344.757812 86.53125 344.675781 87.160156 344.542969 C 87.792969 344.410156 88.410156 344.230469 89.011719 343.996094 C 89.613281 343.765625 90.191406 343.484375 90.746094 343.160156 C 91.300781 342.832031 91.828125 342.460938 92.324219 342.050781 L 122.351562 317.019531 C 124.449219 318.144531 126.570312 319.207031 128.710938 320.242188 L 140.746094 357.292969 C 141.078125 358.324219 141.5625 359.277344 142.199219 360.15625 C 142.835938 361.03125 143.589844 361.789062 144.46875 362.425781 C 145.34375 363.0625 146.296875 363.546875 147.328125 363.878906 C 148.359375 364.214844 149.417969 364.378906 150.5 364.378906 L 165.023438 364.378906 C 165.695312 364.378906 166.363281 364.3125 167.023438 364.179688 C 167.683594 364.046875 168.324219 363.851562 168.945312 363.59375 C 169.566406 363.335938 170.160156 363.023438 170.71875 362.648438 C 171.277344 362.273438 171.796875 361.847656 172.273438 361.375 C 172.746094 360.898438 173.171875 360.378906 173.546875 359.820312 C 173.921875 359.261719 174.238281 358.671875 174.496094 358.050781 C 174.753906 357.429688 174.949219 356.789062 175.082031 356.128906 C 175.210938 355.46875 175.277344 354.800781 175.28125 354.128906 L 175.28125 333.960938 C 182.078125 334.84375 188.902344 335.285156 195.757812 335.289062 L 196.878906 335.289062 L 204.550781 362.917969 C 204.722656 363.539062 204.945312 364.144531 205.214844 364.726562 C 205.488281 365.3125 205.804688 365.871094 206.164062 366.402344 C 206.527344 366.9375 206.929688 367.4375 207.375 367.90625 C 207.816406 368.375 208.292969 368.800781 208.808594 369.191406 C 209.320312 369.582031 209.863281 369.929688 210.429688 370.230469 C 211 370.53125 211.589844 370.785156 212.203125 370.992188 C 212.8125 371.199219 213.433594 371.355469 214.070312 371.460938 C 214.707031 371.566406 215.347656 371.617188 215.992188 371.621094 L 233.117188 371.621094 C 233.828125 371.617188 234.527344 371.550781 235.226562 371.421875 C 235.921875 371.296875 236.601562 371.109375 237.265625 370.859375 C 237.925781 370.609375 238.5625 370.304688 239.171875 369.941406 C 239.777344 369.582031 240.351562 369.167969 240.886719 368.703125 C 241.421875 368.242188 241.910156 367.734375 242.355469 367.183594 C 242.800781 366.632812 243.191406 366.046875 243.535156 365.425781 C 243.875 364.804688 244.15625 364.160156 244.382812 363.488281 C 244.609375 362.820312 244.773438 362.132812 244.875 361.433594 L 250.007812 325.671875 C 253.652344 324.324219 257.214844 322.851562 260.617188 321.28125 C 261.097656 321.144531 261.550781 320.996094 262.023438 320.847656 L 329.453125 338.535156 C 330.167969 338.722656 330.898438 338.820312 331.640625 338.820312 C 332.367188 338.820312 333.078125 338.726562 333.78125 338.542969 C 334.484375 338.359375 335.152344 338.085938 335.785156 337.730469 C 336.417969 337.375 336.996094 336.945312 337.515625 336.441406 C 338.039062 335.933594 338.488281 335.371094 338.863281 334.75 L 347.078125 321.335938 C 347.347656 320.894531 347.578125 320.429688 347.761719 319.945312 C 347.949219 319.460938 348.089844 318.964844 348.183594 318.453125 C 348.277344 317.941406 348.328125 317.429688 348.328125 316.910156 C 348.328125 316.390625 348.28125 315.875 348.1875 315.363281 C 348.09375 314.855469 347.953125 314.355469 347.769531 313.871094 C 347.585938 313.386719 347.359375 312.921875 347.085938 312.476562 C 346.816406 312.035156 346.507812 311.621094 346.164062 311.234375 C 345.816406 310.84375 345.441406 310.492188 345.027344 310.175781 L 320.648438 291.289062 C 357.679688 261.203125 357.210938 225.324219 355.945312 213.832031 C 357.378906 212.980469 358.75 212.042969 360.058594 211.015625 C 361.371094 209.992188 362.609375 208.886719 363.777344 207.699219 C 364.945312 206.515625 366.035156 205.261719 367.042969 203.933594 C 368.050781 202.609375 368.96875 201.226562 369.796875 199.785156 C 370.628906 198.339844 371.363281 196.851562 372 195.3125 C 372.636719 193.777344 373.175781 192.203125 373.609375 190.597656 C 374.046875 188.992188 374.378906 187.367188 374.605469 185.714844 C 374.832031 184.066406 374.953125 182.410156 374.96875 180.746094 Z M 295.753906 76.53125 C 304.390625 78.773438 303.902344 103.664062 301.371094 121.546875 C 291.464844 111.738281 280.34375 103.585938 268.011719 97.078125 C 273.421875 88.953125 285.785156 73.957031 295.753906 76.53125 Z M 185.863281 63.902344 C 185.867188 69.398438 184.941406 74.734375 183.085938 79.910156 C 179.089844 80.222656 175.140625 80.6875 171.238281 81.300781 C 171.90625 79.386719 172.457031 77.4375 172.898438 75.457031 C 173.269531 75.46875 173.691406 75.46875 174.164062 75.46875 C 175.660156 75.46875 177.699219 75.429688 180.492188 75.386719 C 180.675781 75.382812 180.851562 75.34375 181.019531 75.269531 C 181.1875 75.199219 181.335938 75.097656 181.460938 74.964844 C 181.589844 74.832031 181.6875 74.683594 181.753906 74.511719 C 181.820312 74.34375 181.851562 74.167969 181.851562 73.984375 C 181.84375 73.800781 181.804688 73.625 181.730469 73.460938 C 181.65625 73.292969 181.554688 73.144531 181.421875 73.019531 C 181.292969 72.890625 181.144531 72.792969 180.972656 72.722656 C 180.804688 72.652344 180.628906 72.617188 180.445312 72.617188 C 177.917969 72.664062 175.222656 72.691406 173.433594 72.691406 C 173.925781 69.78125 174.175781 66.851562 174.183594 63.902344 C 174.183594 63.347656 174.164062 62.800781 174.144531 62.257812 L 185.820312 62.257812 C 185.835938 62.804688 185.863281 63.347656 185.863281 63.902344 Z M 170.636719 28.972656 C 172.699219 30.898438 174.578125 32.992188 176.277344 35.246094 C 179.085938 38.984375 181.300781 43.046875 182.917969 47.433594 L 177.449219 47.433594 C 177.265625 47.433594 177.089844 47.46875 176.921875 47.539062 C 176.75 47.609375 176.601562 47.707031 176.472656 47.839844 C 176.339844 47.96875 176.242188 48.117188 176.171875 48.285156 C 176.101562 48.457031 176.066406 48.632812 176.066406 48.816406 C 176.066406 49 176.101562 49.175781 176.171875 49.347656 C 176.242188 49.515625 176.339844 49.664062 176.472656 49.792969 C 176.601562 49.925781 176.75 50.023438 176.921875 50.09375 C 177.089844 50.164062 177.265625 50.199219 177.449219 50.199219 L 183.855469 50.199219 C 184.765625 53.234375 185.367188 56.332031 185.652344 59.488281 L 173.988281 59.488281 C 173.96875 59.230469 173.941406 58.972656 173.921875 58.714844 C 173.867188 58.214844 173.8125 57.726562 173.757812 57.238281 C 173.71875 56.996094 173.703125 56.765625 173.664062 56.535156 C 173.570312 55.898438 173.480469 55.261719 173.367188 54.636719 C 173.351562 54.558594 173.339844 54.484375 173.332031 54.40625 C 173.203125 53.703125 173.054688 53.011719 172.898438 52.308594 C 172.851562 52.105469 172.804688 51.894531 172.75 51.691406 C 172.636719 51.199219 172.519531 50.710938 172.390625 50.230469 C 172.324219 49.984375 172.257812 49.742188 172.1875 49.503906 C 172.054688 49.042969 171.917969 48.582031 171.78125 48.128906 C 171.703125 47.898438 171.640625 47.679688 171.566406 47.445312 C 171.382812 46.902344 171.199219 46.355469 170.996094 45.824219 C 170.957031 45.703125 170.910156 45.574219 170.875 45.453125 C 170.625 44.808594 170.367188 44.160156 170.101562 43.515625 C 170.023438 43.332031 169.941406 43.148438 169.859375 42.960938 C 169.65625 42.5 169.460938 42.046875 169.25 41.597656 C 169.140625 41.367188 169.039062 41.148438 168.929688 40.921875 C 168.726562 40.496094 168.511719 40.09375 168.300781 39.675781 C 168.191406 39.464844 168.074219 39.242188 167.960938 39.03125 C 167.773438 38.671875 167.570312 38.3125 167.367188 37.960938 L 174.355469 37.960938 C 174.539062 37.960938 174.714844 37.925781 174.882812 37.855469 C 175.054688 37.785156 175.203125 37.6875 175.332031 37.554688 C 175.460938 37.425781 175.5625 37.277344 175.632812 37.105469 C 175.703125 36.9375 175.738281 36.761719 175.738281 36.578125 C 175.742188 36.292969 175.660156 36.035156 175.5 35.800781 C 175.226562 35.394531 174.84375 35.191406 174.355469 35.191406 L 165.691406 35.191406 C 165.644531 35.117188 165.597656 35.042969 165.550781 34.980469 C 165.277344 34.566406 165 34.152344 164.714844 33.734375 C 164.5625 33.53125 164.414062 33.320312 164.269531 33.117188 L 163.46875 32.039062 L 162.996094 31.429688 C 162.691406 31.054688 162.386719 30.671875 162.074219 30.304688 C 161.945312 30.140625 161.816406 29.980469 161.6875 29.824219 C 161.445312 29.546875 161.207031 29.28125 160.964844 29.015625 C 164.878906 28.964844 168.550781 28.945312 170.636719 28.972656 Z M 158.84375 20.871094 C 161.867188 22.34375 164.707031 24.113281 167.359375 26.179688 C 165.21875 26.191406 162.3125 26.21875 158.347656 26.285156 L 158.335938 26.273438 C 158.03125 25.96875 157.71875 25.675781 157.394531 25.378906 C 157.191406 25.195312 156.996094 25.011719 156.796875 24.835938 C 156.453125 24.53125 156.113281 24.234375 155.761719 23.9375 C 155.578125 23.777344 155.402344 23.621094 155.21875 23.464844 C 154.699219 23.042969 154.175781 22.625 153.640625 22.21875 C 153.488281 22.101562 153.335938 21.988281 153.179688 21.878906 C 152.78125 21.574219 152.375 21.28125 151.96875 20.992188 C 151.90625 20.957031 151.859375 20.910156 151.804688 20.871094 Z M 151.691406 18.105469 L 147.796875 18.105469 C 147.675781 18.105469 147.558594 18.125 147.445312 18.160156 C 146.945312 17.882812 146.449219 17.605469 145.941406 17.347656 C 145.785156 17.265625 145.617188 17.191406 145.460938 17.117188 C 145.054688 16.914062 144.648438 16.703125 144.234375 16.507812 C 146.761719 16.839844 149.25 17.371094 151.691406 18.105469 Z M 73.953125 63.902344 C 73.957031 62.335938 74.035156 60.777344 74.1875 59.21875 C 74.34375 57.660156 74.574219 56.117188 74.882812 54.582031 C 75.1875 53.046875 75.570312 51.53125 76.027344 50.035156 C 76.480469 48.535156 77.007812 47.066406 77.609375 45.621094 C 78.207031 44.175781 78.878906 42.761719 79.617188 41.382812 C 80.355469 40.003906 81.160156 38.664062 82.03125 37.363281 C 82.898438 36.0625 83.832031 34.804688 84.824219 33.597656 C 85.816406 32.386719 86.867188 31.230469 87.976562 30.121094 C 89.082031 29.015625 90.238281 27.96875 91.449219 26.972656 C 92.660156 25.980469 93.914062 25.050781 95.21875 24.179688 C 96.519531 23.3125 97.859375 22.507812 99.238281 21.769531 C 100.621094 21.03125 102.03125 20.363281 103.476562 19.761719 C 104.925781 19.164062 106.394531 18.636719 107.894531 18.179688 C 109.390625 17.726562 110.90625 17.34375 112.441406 17.039062 C 113.976562 16.730469 115.523438 16.5 117.082031 16.34375 C 118.636719 16.191406 120.199219 16.113281 121.765625 16.109375 C 124.371094 16.105469 126.960938 16.320312 129.535156 16.746094 C 130.921875 16.96875 132.292969 17.253906 133.65625 17.597656 C 135.015625 17.941406 136.359375 18.347656 137.683594 18.808594 C 139.011719 19.273438 140.3125 19.792969 141.59375 20.371094 C 142.871094 20.949219 144.121094 21.585938 145.34375 22.273438 C 146.566406 22.960938 147.757812 23.703125 148.914062 24.5 C 150.074219 25.292969 151.191406 26.136719 152.277344 27.03125 C 153.359375 27.925781 154.398438 28.863281 155.398438 29.847656 C 156.398438 30.835938 157.351562 31.863281 158.261719 32.933594 C 159.167969 34.003906 160.027344 35.109375 160.839844 36.257812 C 161.648438 37.402344 162.40625 38.582031 163.113281 39.796875 C 163.820312 41.007812 164.472656 42.25 165.066406 43.523438 C 165.664062 44.792969 166.203125 46.089844 166.683594 47.40625 C 167.164062 48.726562 167.585938 50.0625 167.949219 51.417969 C 168.3125 52.773438 168.613281 54.144531 168.855469 55.527344 C 169.097656 56.910156 169.277344 58.300781 169.398438 59.699219 C 169.515625 61.097656 169.574219 62.496094 169.566406 63.902344 C 169.566406 64.886719 169.53125 65.867188 169.476562 66.84375 C 169.410156 67.941406 169.300781 69.03125 169.152344 70.109375 C 168.613281 74.289062 167.539062 78.328125 165.929688 82.222656 C 161.390625 83.097656 156.941406 84.164062 152.578125 85.414062 C 153.347656 84.253906 154.054688 83.058594 154.695312 81.824219 C 155.335938 80.585938 155.910156 79.320312 156.417969 78.023438 C 156.921875 76.726562 157.355469 75.40625 157.722656 74.0625 C 158.085938 72.722656 158.375 71.363281 158.59375 69.988281 C 158.8125 68.613281 158.953125 67.230469 159.023438 65.839844 C 159.09375 64.449219 159.089844 63.058594 159.007812 61.667969 C 158.929688 60.28125 158.773438 58.898438 158.546875 57.527344 C 158.316406 56.152344 158.015625 54.796875 157.640625 53.457031 C 157.265625 52.113281 156.824219 50.796875 156.308594 49.503906 C 155.792969 48.210938 155.207031 46.949219 154.554688 45.71875 C 153.90625 44.488281 153.191406 43.296875 152.410156 42.144531 C 151.632812 40.992188 150.792969 39.882812 149.894531 38.820312 C 148.996094 37.757812 148.042969 36.742188 147.035156 35.78125 C 146.03125 34.820312 144.972656 33.917969 143.871094 33.070312 C 142.765625 32.222656 141.617188 31.433594 140.429688 30.710938 C 139.242188 29.984375 138.015625 29.328125 136.757812 28.734375 C 135.5 28.140625 134.210938 27.617188 132.894531 27.160156 C 131.578125 26.707031 130.242188 26.324219 128.886719 26.011719 C 127.527344 25.699219 126.160156 25.464844 124.777344 25.296875 C 123.394531 25.132812 122.007812 25.042969 120.613281 25.027344 C 119.222656 25.015625 117.832031 25.074219 116.449219 25.207031 C 115.0625 25.339844 113.6875 25.546875 112.324219 25.828125 C 110.960938 26.109375 109.617188 26.464844 108.289062 26.890625 C 106.964844 27.316406 105.664062 27.8125 104.394531 28.375 C 103.121094 28.941406 101.882812 29.574219 100.679688 30.273438 C 99.472656 30.96875 98.308594 31.730469 97.1875 32.554688 C 96.066406 33.378906 94.988281 34.257812 93.960938 35.195312 C 92.933594 36.136719 91.957031 37.125 91.035156 38.167969 C 90.117188 39.210938 89.253906 40.300781 88.449219 41.4375 C 87.644531 42.574219 86.902344 43.75 86.222656 44.964844 C 85.546875 46.179688 84.933594 47.429688 84.390625 48.710938 C 83.847656 49.992188 83.371094 51.296875 82.96875 52.628906 C 82.566406 53.964844 82.234375 55.3125 81.976562 56.679688 C 81.714844 58.046875 81.53125 59.425781 81.421875 60.8125 C 81.308594 62.199219 81.273438 63.589844 81.3125 64.980469 C 81.351562 66.371094 81.464844 67.757812 81.652344 69.136719 C 81.839844 70.515625 82.101562 71.882812 82.433594 73.234375 C 82.769531 74.585938 83.171875 75.914062 83.652344 77.222656 C 84.128906 78.527344 84.671875 79.808594 85.289062 81.054688 C 85.902344 82.304688 86.582031 83.519531 87.324219 84.695312 C 88.070312 85.871094 88.875 87.003906 89.742188 88.09375 C 90.609375 89.183594 91.53125 90.222656 92.507812 91.214844 C 93.484375 92.203125 94.515625 93.140625 95.59375 94.019531 C 96.671875 94.898438 97.792969 95.71875 98.960938 96.480469 C 100.128906 97.238281 101.332031 97.933594 102.574219 98.566406 C 103.8125 99.195312 105.085938 99.757812 106.386719 100.25 C 107.6875 100.746094 109.011719 101.167969 110.359375 101.519531 C 111.707031 101.871094 113.070312 102.148438 114.445312 102.355469 C 111.246094 104.359375 108.140625 106.472656 105.136719 108.703125 C 102.863281 107.859375 100.667969 106.84375 98.546875 105.667969 C 96.429688 104.488281 94.410156 103.15625 92.492188 101.667969 C 90.578125 100.183594 88.785156 98.5625 87.113281 96.804688 C 85.445312 95.046875 83.917969 93.171875 82.53125 91.179688 C 81.148438 89.191406 79.917969 87.109375 78.851562 84.929688 C 77.78125 82.753906 76.886719 80.511719 76.15625 78.195312 C 75.429688 75.882812 74.882812 73.53125 74.511719 71.132812 C 74.144531 68.738281 73.957031 66.328125 73.953125 63.902344 Z M 148.148438 86.753906 C 137.738281 90.070312 127.8125 94.476562 118.371094 99.976562 C 117.699219 99.941406 117.027344 99.890625 116.359375 99.820312 C 115.691406 99.75 115.027344 99.660156 114.363281 99.550781 C 113.699219 99.445312 113.039062 99.320312 112.382812 99.175781 C 111.726562 99.03125 111.074219 98.867188 110.429688 98.6875 C 109.78125 98.507812 109.140625 98.308594 108.503906 98.09375 C 107.867188 97.875 107.238281 97.640625 106.613281 97.390625 C 105.992188 97.140625 105.375 96.871094 104.765625 96.585938 C 104.160156 96.300781 103.558594 95.996094 102.96875 95.675781 C 102.375 95.359375 101.792969 95.023438 101.222656 94.671875 C 100.648438 94.320312 100.085938 93.953125 99.535156 93.570312 C 98.980469 93.1875 98.441406 92.789062 97.910156 92.375 C 97.382812 91.964844 96.863281 91.535156 96.355469 91.09375 C 95.851562 90.652344 95.355469 90.195312 94.875 89.726562 C 94.394531 89.257812 93.929688 88.773438 93.472656 88.277344 C 93.019531 87.785156 92.582031 87.277344 92.15625 86.757812 C 91.730469 86.234375 91.320312 85.703125 90.921875 85.160156 C 90.527344 84.621094 90.148438 84.066406 89.78125 83.5 C 89.417969 82.9375 89.066406 82.363281 88.734375 81.78125 C 88.402344 81.195312 88.085938 80.605469 87.785156 80.003906 C 87.484375 79.402344 87.203125 78.792969 86.933594 78.175781 C 86.667969 77.558594 86.421875 76.9375 86.1875 76.304688 C 85.957031 75.675781 85.742188 75.039062 85.546875 74.394531 C 85.351562 73.753906 85.175781 73.105469 85.015625 72.453125 C 84.855469 71.800781 84.714844 71.144531 84.589844 70.484375 C 84.46875 69.820312 84.363281 69.160156 84.277344 68.492188 C 84.191406 67.828125 84.121094 67.15625 84.074219 66.488281 C 84.023438 65.816406 83.996094 65.148438 83.984375 64.476562 C 83.972656 63.804688 83.980469 63.132812 84.003906 62.460938 C 84.03125 61.789062 84.074219 61.121094 84.136719 60.449219 C 84.203125 59.78125 84.285156 59.117188 84.382812 58.449219 C 84.484375 57.785156 84.601562 57.125 84.742188 56.46875 C 84.878906 55.808594 85.03125 55.15625 85.207031 54.507812 C 85.378906 53.859375 85.570312 53.214844 85.78125 52.578125 C 85.992188 51.9375 86.21875 51.308594 86.464844 50.679688 C 86.707031 50.054688 86.96875 49.4375 87.25 48.824219 C 87.527344 48.214844 87.824219 47.613281 88.136719 47.019531 C 88.449219 46.421875 88.78125 45.835938 89.125 45.261719 C 89.46875 44.683594 89.832031 44.117188 90.207031 43.5625 C 90.585938 43.007812 90.976562 42.460938 91.386719 41.925781 C 91.792969 41.394531 92.214844 40.871094 92.652344 40.359375 C 93.089844 39.847656 93.539062 39.351562 94.003906 38.867188 C 94.46875 38.378906 94.945312 37.90625 95.433594 37.449219 C 95.925781 36.988281 96.429688 36.542969 96.945312 36.113281 C 97.460938 35.683594 97.988281 35.265625 98.527344 34.863281 C 99.066406 34.460938 99.613281 34.078125 100.175781 33.707031 C 100.734375 33.335938 101.304688 32.980469 101.886719 32.640625 C 102.464844 32.300781 103.054688 31.976562 103.652344 31.671875 C 104.25 31.363281 104.855469 31.074219 105.46875 30.804688 C 106.085938 30.53125 106.707031 30.273438 107.332031 30.035156 C 107.960938 29.800781 108.597656 29.578125 109.238281 29.375 C 109.878906 29.171875 110.523438 28.988281 111.175781 28.820312 C 111.824219 28.65625 112.480469 28.507812 113.140625 28.375 C 113.800781 28.246094 114.460938 28.132812 115.128906 28.042969 C 115.792969 27.949219 116.460938 27.875 117.128906 27.816406 C 117.800781 27.761719 118.46875 27.722656 119.140625 27.703125 C 119.8125 27.6875 120.484375 27.6875 121.15625 27.703125 C 121.828125 27.722656 122.5 27.761719 123.167969 27.816406 C 123.839844 27.871094 124.507812 27.949219 125.171875 28.039062 C 125.835938 28.132812 126.5 28.246094 127.160156 28.375 C 127.820312 28.507812 128.472656 28.65625 129.125 28.820312 C 129.777344 28.988281 130.421875 29.171875 131.0625 29.375 C 131.703125 29.578125 132.335938 29.796875 132.964844 30.035156 C 133.59375 30.273438 134.214844 30.53125 134.828125 30.800781 C 135.445312 31.074219 136.050781 31.363281 136.648438 31.671875 C 137.246094 31.976562 137.835938 32.300781 138.414062 32.640625 C 138.996094 32.976562 139.566406 33.332031 140.125 33.703125 C 140.6875 34.074219 141.234375 34.460938 141.773438 34.863281 C 142.3125 35.265625 142.839844 35.679688 143.355469 36.113281 C 143.871094 36.542969 144.375 36.988281 144.863281 37.445312 C 145.355469 37.90625 145.832031 38.378906 146.296875 38.863281 C 146.761719 39.347656 147.210938 39.847656 147.648438 40.359375 C 148.085938 40.867188 148.507812 41.390625 148.914062 41.925781 C 149.324219 42.460938 149.714844 43.003906 150.09375 43.5625 C 150.46875 44.117188 150.832031 44.683594 151.175781 45.257812 C 151.519531 45.835938 151.851562 46.421875 152.164062 47.015625 C 152.476562 47.609375 152.773438 48.210938 153.050781 48.824219 C 153.332031 49.433594 153.59375 50.054688 153.839844 50.679688 C 154.082031 51.304688 154.308594 51.9375 154.519531 52.574219 C 154.730469 53.214844 154.921875 53.855469 155.09375 54.503906 C 155.269531 55.15625 155.425781 55.808594 155.5625 56.464844 C 155.699219 57.125 155.816406 57.785156 155.917969 58.449219 C 156.019531 59.113281 156.101562 59.78125 156.164062 60.449219 C 156.226562 61.117188 156.269531 61.789062 156.296875 62.457031 C 156.324219 63.128906 156.332031 63.800781 156.320312 64.472656 C 156.308594 65.144531 156.277344 65.816406 156.226562 66.484375 C 156.179688 67.15625 156.113281 67.824219 156.027344 68.488281 C 155.941406 69.15625 155.835938 69.820312 155.710938 70.480469 C 155.589844 71.140625 155.449219 71.796875 155.289062 72.449219 C 155.128906 73.101562 154.949219 73.75 154.753906 74.394531 C 154.558594 75.035156 154.34375 75.671875 154.113281 76.304688 C 153.882812 76.933594 153.632812 77.558594 153.367188 78.175781 C 153.101562 78.792969 152.820312 79.398438 152.519531 80 C 152.21875 80.601562 151.902344 81.195312 151.570312 81.777344 C 151.234375 82.363281 150.886719 82.9375 150.523438 83.5 C 150.15625 84.0625 149.777344 84.617188 149.378906 85.160156 C 148.984375 85.703125 148.574219 86.234375 148.148438 86.753906 Z M 14.542969 255.9375 C 9.761719 255.003906 7.410156 250.863281 6.617188 249.128906 C 5.820312 247.507812 5.441406 245.792969 5.472656 243.988281 C 5.972656 244.367188 6.4375 244.789062 6.855469 245.253906 C 10.195312 248.832031 13.75 250.496094 17.414062 250.179688 C 19.976562 249.898438 22.210938 248.894531 24.121094 247.164062 C 25.820312 248.4375 27.980469 250.300781 28.773438 252.015625 C 25.230469 254.664062 20.253906 257.046875 14.542969 255.9375 Z M 28.105469 240.1875 C 17.667969 231.617188 14.199219 222.253906 15.398438 217.179688 C 15.601562 216.339844 16.109375 214.882812 17.328125 214.605469 C 17.378906 214.597656 17.429688 214.589844 17.484375 214.585938 C 17.945312 214.875 18.820312 217.003906 19.402344 218.425781 C 21.597656 223.738281 24.902344 231.785156 36.132812 234.347656 L 36.28125 234.375 L 36.296875 234.375 C 37.945312 234.773438 39.617188 235.003906 41.3125 235.066406 C 43.003906 235.128906 44.691406 235.023438 46.363281 234.75 C 48.035156 234.476562 49.667969 234.039062 51.253906 233.441406 C 52.839844 232.84375 54.351562 232.09375 55.789062 231.195312 C 56.585938 235.007812 57.582031 238.765625 58.769531 242.476562 C 47.957031 248.972656 37.871094 248.207031 28.109375 240.1875 Z M 170.664062 354.128906 C 170.664062 354.5 170.628906 354.863281 170.554688 355.226562 C 170.484375 355.589844 170.375 355.941406 170.234375 356.285156 C 170.09375 356.625 169.917969 356.953125 169.714844 357.257812 C 169.507812 357.566406 169.273438 357.851562 169.011719 358.113281 C 168.75 358.375 168.464844 358.609375 168.15625 358.8125 C 167.851562 359.019531 167.523438 359.191406 167.183594 359.335938 C 166.839844 359.476562 166.488281 359.582031 166.125 359.65625 C 165.761719 359.726562 165.398438 359.765625 165.027344 359.765625 L 150.5 359.765625 C 149.964844 359.761719 149.4375 359.6875 148.921875 359.535156 C 148.378906 355.492188 147.640625 347.382812 149.632812 342.910156 C 151.8125 337.992188 165.394531 335.269531 170.664062 334.394531 Z M 342.199219 313.820312 C 342.578125 314.113281 342.894531 314.464844 343.144531 314.875 C 343.394531 315.285156 343.5625 315.722656 343.648438 316.195312 C 343.734375 316.667969 343.734375 317.140625 343.648438 317.609375 C 343.558594 318.082031 343.390625 318.523438 343.140625 318.929688 L 334.933594 332.347656 C 334.636719 332.832031 334.25 333.230469 333.777344 333.542969 C 333.304688 333.859375 332.785156 334.058594 332.222656 334.144531 C 327.875 330.886719 318.648438 323.082031 316.589844 314.207031 C 316.230469 312.675781 316.019531 311.121094 315.949219 309.550781 C 315.882812 307.980469 315.957031 306.414062 316.179688 304.855469 C 316.402344 303.300781 316.765625 301.777344 317.273438 300.285156 C 317.78125 298.796875 318.417969 297.367188 319.191406 295.996094 Z M 259.136719 316.921875 C 259.035156 316.945312 258.933594 316.984375 258.839844 317.03125 C 255.09375 318.753906 251.164062 320.363281 247.152344 321.808594 C 246.75 321.953125 246.414062 322.191406 246.144531 322.523438 C 245.871094 322.855469 245.707031 323.230469 245.648438 323.65625 L 240.3125 360.78125 C 240.25 361.207031 240.148438 361.625 240.011719 362.035156 C 239.875 362.445312 239.703125 362.84375 239.492188 363.222656 C 239.285156 363.601562 239.046875 363.957031 238.773438 364.296875 C 238.5 364.632812 238.203125 364.941406 237.875 365.226562 C 237.546875 365.507812 237.199219 365.761719 236.824219 365.984375 C 236.453125 366.203125 236.066406 366.390625 235.660156 366.542969 C 235.253906 366.695312 234.839844 366.808594 234.414062 366.886719 C 233.988281 366.964844 233.558594 367.003906 233.125 367.007812 L 215.992188 367.007812 C 215.199219 367.003906 214.429688 366.878906 213.679688 366.625 C 212.925781 366.371094 212.234375 366.003906 211.605469 365.523438 C 210.972656 365.042969 210.433594 364.476562 209.988281 363.820312 C 209.542969 363.164062 209.210938 362.457031 209 361.691406 L 200.851562 332.328125 C 200.710938 331.828125 200.433594 331.425781 200.023438 331.109375 C 199.609375 330.796875 199.144531 330.640625 198.625 330.640625 L 198.589844 330.640625 L 198.089844 330.648438 C 197.316406 330.667969 196.53125 330.675781 195.757812 330.675781 C 189.441406 330.699219 183.152344 330.324219 176.886719 329.550781 C 170.621094 328.78125 164.429688 327.617188 158.3125 326.058594 C 152.191406 324.503906 146.199219 322.566406 140.324219 320.253906 C 134.449219 317.9375 128.746094 315.261719 123.210938 312.222656 C 122.796875 311.992188 122.347656 311.898438 121.875 311.941406 C 121.398438 311.984375 120.976562 312.160156 120.609375 312.464844 L 89.371094 338.507812 C 88.761719 339.015625 88.085938 339.414062 87.347656 339.699219 C 86.605469 339.988281 85.839844 340.148438 85.046875 340.183594 C 84.253906 340.21875 83.476562 340.128906 82.710938 339.910156 C 81.949219 339.691406 81.242188 339.355469 80.585938 338.90625 L 66.507812 329.164062 C 66.152344 328.914062 65.820312 328.636719 65.515625 328.332031 C 65.210938 328.023438 64.933594 327.695312 64.6875 327.339844 C 64.441406 326.984375 64.226562 326.609375 64.046875 326.214844 C 63.867188 325.824219 63.722656 325.417969 63.617188 324.996094 C 63.507812 324.578125 63.4375 324.152344 63.40625 323.722656 C 63.371094 323.292969 63.378906 322.859375 63.421875 322.429688 C 63.46875 322 63.550781 321.578125 63.667969 321.160156 C 63.789062 320.746094 63.945312 320.34375 64.136719 319.957031 L 83.523438 281.085938 C 83.722656 280.6875 83.800781 280.261719 83.753906 279.816406 C 83.707031 279.371094 83.542969 278.972656 83.265625 278.625 C 66.691406 257.71875 57.933594 233.066406 57.933594 207.34375 C 57.933594 172.730469 73.953125 141.40625 99.710938 118.980469 C 100.074219 119.300781 100.484375 119.550781 100.9375 119.730469 C 101.394531 119.90625 101.863281 120 102.351562 120.011719 C 102.835938 120.023438 103.3125 119.949219 103.773438 119.792969 C 104.234375 119.636719 104.65625 119.40625 105.035156 119.101562 C 145.261719 86.910156 191.6875 87.058594 191.6875 87.058594 C 185.863281 99.632812 182.0625 115.410156 182.0625 128.851562 C 182.054688 131.332031 182.195312 133.804688 182.488281 136.269531 C 182.519531 136.546875 182.605469 136.8125 182.734375 137.058594 C 182.867188 137.308594 183.039062 137.527344 183.246094 137.714844 C 183.457031 137.902344 183.695312 138.042969 183.957031 138.144531 C 184.222656 138.246094 184.492188 138.296875 184.773438 138.296875 C 184.871094 138.296875 184.964844 138.289062 185.0625 138.277344 C 185.363281 138.238281 185.648438 138.144531 185.914062 137.992188 C 186.179688 137.84375 186.40625 137.644531 186.597656 137.40625 C 186.785156 137.164062 186.921875 136.898438 187.003906 136.601562 C 187.085938 136.308594 187.109375 136.007812 187.074219 135.707031 C 184.507812 114.9375 194.796875 82.839844 207.46875 72.109375 C 210.769531 69.304688 213.890625 68.308594 216.722656 69.136719 C 232.492188 73.796875 246.125 110.046875 246.261719 110.40625 C 246.367188 110.695312 246.523438 110.953125 246.730469 111.179688 C 246.9375 111.410156 247.179688 111.589844 247.460938 111.71875 C 247.738281 111.847656 248.03125 111.917969 248.339844 111.933594 C 248.648438 111.945312 248.945312 111.894531 249.234375 111.789062 C 249.523438 111.683594 249.78125 111.523438 250.003906 111.3125 C 250.230469 111.101562 250.40625 110.855469 250.53125 110.574219 C 250.660156 110.292969 250.726562 110 250.734375 109.691406 C 250.742188 109.382812 250.691406 109.085938 250.582031 108.800781 C 248.292969 102.847656 245.644531 97.058594 242.640625 91.4375 C 271.246094 100.746094 296.125 118.402344 312.652344 142.023438 C 308.1875 142.238281 303.789062 142.898438 299.457031 144.003906 C 300.246094 141.84375 300.417969 139.632812 299.972656 137.371094 C 299.03125 132.222656 295.496094 128.5625 292.066406 129.179688 C 288.632812 129.796875 286.621094 134.484375 287.550781 139.621094 C 288.132812 142.816406 289.722656 145.4375 291.648438 146.820312 C 290.164062 147.488281 288.777344 148.324219 287.488281 149.320312 C 287.257812 149.519531 287.078125 149.753906 286.941406 150.023438 C 286.804688 150.296875 286.726562 150.582031 286.703125 150.882812 C 286.679688 151.1875 286.714844 151.480469 286.808594 151.769531 C 286.902344 152.058594 287.046875 152.316406 287.242188 152.550781 C 287.4375 152.78125 287.667969 152.964844 287.9375 153.105469 C 288.207031 153.246094 288.492188 153.328125 288.792969 153.359375 C 289.097656 153.386719 289.390625 153.355469 289.679688 153.265625 C 289.972656 153.175781 290.234375 153.035156 290.46875 152.84375 C 290.542969 152.777344 297.554688 147.03125 314.996094 146.542969 C 314.472656 146.820312 313.953125 147.105469 313.445312 147.410156 C 313.382812 147.445312 313.316406 147.484375 313.261719 147.511719 C 312.570312 147.925781 311.894531 148.359375 311.238281 148.8125 C 311.101562 148.894531 310.972656 148.988281 310.832031 149.078125 C 310.195312 149.527344 309.566406 149.992188 308.960938 150.472656 C 308.847656 150.554688 308.746094 150.648438 308.636719 150.730469 C 308.046875 151.210938 307.464844 151.699219 306.890625 152.207031 C 306.851562 152.253906 306.808594 152.292969 306.761719 152.328125 C 306.179688 152.863281 305.617188 153.414062 305.066406 153.976562 C 304.953125 154.085938 304.839844 154.199219 304.730469 154.316406 C 304.207031 154.871094 303.691406 155.441406 303.191406 156.023438 C 303.097656 156.132812 303.015625 156.25 302.921875 156.347656 C 302.433594 156.9375 301.964844 157.535156 301.511719 158.144531 L 301.429688 158.253906 C 300.96875 158.890625 300.523438 159.539062 300.101562 160.203125 L 299.851562 160.589844 C 299.445312 161.246094 299.058594 161.902344 298.695312 162.574219 C 298.621094 162.695312 298.558594 162.824219 298.496094 162.941406 C 298.132812 163.625 297.785156 164.316406 297.46875 165.019531 C 297.453125 165.046875 297.441406 165.074219 297.425781 165.101562 C 297.101562 165.820312 296.796875 166.550781 296.519531 167.289062 C 296.464844 167.4375 296.410156 167.574219 296.351562 167.722656 C 296.09375 168.441406 295.847656 169.171875 295.625 169.90625 C 295.585938 170.046875 295.542969 170.183594 295.503906 170.324219 C 295.28125 171.082031 295.089844 171.847656 294.914062 172.621094 C 294.914062 172.640625 294.90625 172.648438 294.90625 172.667969 C 294.730469 173.453125 294.589844 174.246094 294.472656 175.039062 C 294.445312 175.1875 294.425781 175.332031 294.394531 175.488281 C 294.296875 176.253906 294.203125 177.035156 294.148438 177.820312 C 294.128906 177.972656 294.128906 178.117188 294.121094 178.265625 C 294.0625 179.089844 294.027344 179.90625 294.027344 180.734375 C 294.027344 200.671875 309.59375 217.148438 329.617188 219.484375 C 324.78125 224.464844 314.761719 232.980469 303.863281 231.707031 C 294.269531 230.589844 285.8125 222.09375 278.707031 206.457031 C 280.667969 205.398438 282.761719 204.984375 284.980469 205.210938 C 285.285156 205.25 285.582031 205.226562 285.875 205.144531 C 286.171875 205.066406 286.4375 204.929688 286.679688 204.742188 C 286.921875 204.554688 287.117188 204.332031 287.265625 204.066406 C 287.417969 203.800781 287.511719 203.515625 287.550781 203.214844 C 287.589844 202.910156 287.570312 202.613281 287.488281 202.316406 C 287.410156 202.023438 287.277344 201.753906 287.089844 201.515625 C 286.902344 201.273438 286.675781 201.074219 286.414062 200.921875 C 286.148438 200.769531 285.863281 200.675781 285.5625 200.636719 C 285.3125 200.609375 279.460938 199.90625 274.773438 203.558594 C 271.753906 205.910156 269.945312 209.445312 269.390625 214.066406 C 269.355469 214.371094 269.378906 214.667969 269.460938 214.964844 C 269.542969 215.257812 269.679688 215.527344 269.871094 215.769531 C 270.058594 216.007812 270.289062 216.203125 270.558594 216.351562 C 270.824219 216.503906 271.109375 216.59375 271.414062 216.628906 C 271.507812 216.640625 271.597656 216.648438 271.683594 216.648438 C 271.964844 216.648438 272.238281 216.597656 272.5 216.496094 C 272.765625 216.394531 273.003906 216.25 273.214844 216.0625 C 273.425781 215.875 273.59375 215.65625 273.726562 215.40625 C 273.855469 215.15625 273.9375 214.890625 273.96875 214.609375 C 274.136719 213.007812 274.582031 211.484375 275.300781 210.039062 C 282.976562 226.175781 292.398438 235.015625 303.324219 236.289062 C 304.238281 236.394531 305.160156 236.449219 306.082031 236.445312 C 320.652344 236.445312 332.621094 223.316406 335.613281 219.746094 C 336.054688 219.726562 336.496094 219.71875 336.941406 219.691406 C 337.207031 219.683594 337.464844 219.65625 337.726562 219.636719 C 338.277344 219.589844 338.832031 219.542969 339.386719 219.480469 C 339.691406 219.441406 339.984375 219.394531 340.289062 219.359375 C 340.808594 219.285156 341.324219 219.203125 341.832031 219.109375 C 342.136719 219.0625 342.429688 219.007812 342.734375 218.945312 C 343.269531 218.84375 343.796875 218.71875 344.324219 218.59375 C 344.589844 218.527344 344.847656 218.472656 345.117188 218.398438 C 345.816406 218.214844 346.519531 218.011719 347.214844 217.789062 C 347.292969 217.773438 347.371094 217.753906 347.445312 217.726562 C 348.210938 217.476562 348.96875 217.203125 349.707031 216.914062 C 349.945312 216.8125 350.1875 216.710938 350.417969 216.621094 C 350.785156 216.460938 351.167969 216.3125 351.523438 216.148438 C 352.902344 233.621094 349.738281 289.527344 259.136719 316.921875 Z M 352.347656 210.609375 C 349.613281 212.113281 346.734375 213.253906 343.710938 214.027344 C 340.6875 214.800781 337.613281 215.183594 334.492188 215.179688 C 314.726562 215.179688 298.640625 199.734375 298.640625 180.75 C 298.636719 178.832031 298.804688 176.925781 299.140625 175.039062 C 299.296875 174.109375 299.5 173.1875 299.75 172.28125 C 300.144531 170.847656 300.625 169.449219 301.199219 168.078125 C 301.769531 166.707031 302.425781 165.378906 303.167969 164.09375 C 303.910156 162.808594 304.726562 161.574219 305.625 160.390625 C 306.523438 159.207031 307.488281 158.085938 308.53125 157.027344 C 309.570312 155.964844 310.671875 154.976562 311.835938 154.058594 C 313.003906 153.136719 314.222656 152.292969 315.492188 151.527344 C 316.765625 150.761719 318.082031 150.082031 319.4375 149.484375 C 320.796875 148.882812 322.1875 148.375 323.613281 147.953125 C 324.082031 147.800781 324.5625 147.664062 325.050781 147.535156 C 328.148438 146.734375 331.296875 146.335938 334.492188 146.335938 C 354.269531 146.335938 370.355469 161.769531 370.355469 180.75 C 370.339844 182.277344 370.222656 183.792969 370.007812 185.304688 C 369.789062 186.816406 369.472656 188.304688 369.058594 189.773438 C 368.640625 191.242188 368.128906 192.675781 367.523438 194.078125 C 366.914062 195.476562 366.214844 196.832031 365.429688 198.136719 C 364.640625 199.445312 363.769531 200.691406 362.8125 201.882812 C 361.859375 203.074219 360.828125 204.195312 359.726562 205.25 C 358.621094 206.304688 357.449219 207.277344 356.214844 208.175781 C 354.980469 209.074219 353.691406 209.886719 352.347656 210.609375 Z M 362.148438 180.757812 C 362.148438 187.75 358.523438 193.414062 354.046875 193.414062 C 349.570312 193.414062 345.9375 187.75 345.9375 180.757812 C 345.9375 173.761719 349.5625 168.089844 354.046875 168.089844 C 358.53125 168.089844 362.148438 173.753906 362.148438 180.757812 Z M 334.492188 181.511719 C 334.492188 188.507812 330.867188 194.179688 326.390625 194.179688 C 321.914062 194.179688 318.277344 188.507812 318.277344 181.511719 C 318.277344 174.519531 321.90625 168.847656 326.390625 168.847656 C 330.875 168.847656 334.492188 174.519531 334.492188 181.511719 Z M 258.238281 144.957031 C 259.28125 150.714844 256.699219 156.011719 252.453125 156.785156 C 248.210938 157.5625 243.925781 153.511719 242.875 147.753906 C 241.824219 141.996094 244.417969 136.691406 248.660156 135.925781 C 252.90625 135.160156 257.1875 139.203125 258.238281 144.960938 Z M 122.808594 61.28125 L 122.808594 48.109375 C 125.492188 48.410156 128.066406 49.101562 130.542969 50.183594 C 130.925781 50.347656 131.324219 50.433594 131.742188 50.4375 C 132.160156 50.445312 132.5625 50.367188 132.949219 50.207031 C 133.335938 50.050781 133.675781 49.824219 133.96875 49.527344 C 134.265625 49.230469 134.492188 48.890625 134.648438 48.503906 L 134.953125 47.746094 C 135.113281 47.359375 135.195312 46.957031 135.199219 46.539062 C 135.207031 46.121094 135.132812 45.71875 134.980469 45.328125 C 134.828125 44.9375 134.609375 44.589844 134.324219 44.285156 C 134.039062 43.980469 133.707031 43.738281 133.328125 43.558594 C 129.976562 42.078125 126.46875 41.242188 122.808594 41.058594 L 122.808594 35.652344 C 122.808594 35.410156 122.761719 35.175781 122.667969 34.949219 C 122.574219 34.726562 122.441406 34.527344 122.269531 34.355469 C 122.097656 34.183594 121.898438 34.050781 121.675781 33.957031 C 121.449219 33.863281 121.214844 33.816406 120.972656 33.816406 L 119.300781 33.816406 C 119.058594 33.816406 118.824219 33.863281 118.597656 33.957031 C 118.371094 34.046875 118.171875 34.179688 118 34.351562 C 117.824219 34.523438 117.691406 34.722656 117.597656 34.949219 C 117.503906 35.175781 117.457031 35.410156 117.457031 35.652344 L 117.457031 41.1875 C 107.277344 42.164062 102.449219 47.96875 102.449219 54.628906 C 102.449219 63.695312 110.210938 66.042969 117.457031 67.804688 L 117.457031 80.851562 C 113.773438 80.511719 110.308594 79.457031 107.0625 77.683594 C 106.710938 77.484375 106.332031 77.367188 105.925781 77.328125 C 105.519531 77.285156 105.125 77.332031 104.738281 77.460938 C 104.355469 77.589844 104.011719 77.789062 103.710938 78.0625 C 103.410156 78.339844 103.175781 78.660156 103.015625 79.035156 L 102.78125 79.550781 C 102.582031 79.984375 102.46875 80.441406 102.445312 80.921875 C 102.417969 81.402344 102.480469 81.867188 102.628906 82.324219 C 102.78125 82.777344 103.007812 83.191406 103.316406 83.558594 C 103.621094 83.929688 103.984375 84.230469 104.40625 84.460938 C 108.511719 86.523438 112.863281 87.671875 117.453125 87.902344 L 117.453125 93.292969 C 117.457031 93.539062 117.503906 93.773438 117.597656 94 C 117.691406 94.226562 117.824219 94.425781 117.996094 94.597656 C 118.167969 94.769531 118.371094 94.902344 118.59375 95 C 118.820312 95.09375 119.054688 95.140625 119.300781 95.140625 L 120.972656 95.140625 C 121.214844 95.140625 121.449219 95.09375 121.675781 94.996094 C 121.898438 94.902344 122.097656 94.769531 122.269531 94.597656 C 122.441406 94.425781 122.574219 94.226562 122.667969 94 C 122.761719 93.773438 122.808594 93.539062 122.808594 93.292969 L 122.808594 87.832031 C 133.050781 86.789062 137.949219 81.042969 137.949219 74.390625 C 137.953125 65.324219 130.050781 63.042969 122.808594 61.28125 Z M 117.457031 59.90625 C 113.671875 58.800781 110.867188 57.371094 110.867188 54.234375 C 110.867188 51.363281 112.824219 49.011719 117.457031 48.300781 Z M 122.808594 80.71875 L 122.808594 69.171875 C 126.71875 70.285156 129.597656 71.78125 129.597656 74.984375 C 129.597656 77.785156 127.570312 80 122.808594 80.71875 Z M 122.808594 80.71875 " fill-opacity="1" fill-rule="nonzero"/></g><path fill="#ffc9c5" d="M 112.757812 130.925781 C 107.328125 137.4375 102.726562 144.488281 98.960938 152.082031 C 95.191406 159.675781 92.359375 167.605469 90.460938 175.867188 C 95.804688 172.925781 103.539062 174.625 101.289062 200.648438 C 99.390625 222.605469 91.921875 220.46875 87.039062 216.4375 C 87.878906 233.585938 91.117188 250.269531 96.757812 266.488281 C 35.140625 180.027344 112.757812 130.925781 112.757812 130.925781 Z M 215.296875 345.757812 C 210.628906 335.339844 204.257812 318.695312 204.257812 318.695312 C 204.257812 318.695312 208.636719 355.789062 215.90625 360.890625 C 223.175781 365.992188 235.121094 362.800781 235.121094 362.800781 C 235.121094 362.800781 219.964844 356.171875 215.296875 345.757812 Z M 73.433594 320.476562 C 75.714844 329.058594 86.910156 334.296875 86.910156 334.296875 C 86.910156 334.296875 79.578125 319.476562 82.710938 308.5 C 85.839844 297.523438 91.675781 280.683594 91.675781 280.683594 C 91.675781 280.683594 71.152344 311.894531 73.433594 320.476562 Z M 73.433594 320.476562 " fill-opacity="1" fill-rule="nonzero"/><path fill="#f86c5f" d="M 334.492188 146.332031 C 331.292969 146.332031 328.148438 146.730469 325.050781 147.53125 C 324.5625 147.664062 324.082031 147.800781 323.613281 147.949219 C 322.1875 148.371094 320.796875 148.878906 319.4375 149.480469 C 318.078125 150.078125 316.765625 150.757812 315.492188 151.523438 C 314.21875 152.289062 313 153.132812 311.835938 154.054688 C 310.671875 154.972656 309.570312 155.964844 308.527344 157.023438 C 307.488281 158.082031 306.519531 159.203125 305.625 160.386719 C 304.726562 161.570312 303.90625 162.804688 303.167969 164.089844 C 302.425781 165.375 301.769531 166.703125 301.199219 168.074219 C 300.625 169.445312 300.144531 170.84375 299.75 172.277344 C 299.496094 173.183594 299.292969 174.105469 299.140625 175.035156 C 298.804688 176.921875 298.636719 178.828125 298.640625 180.746094 C 298.640625 199.730469 314.726562 215.175781 334.492188 215.175781 C 337.613281 215.179688 340.6875 214.796875 343.710938 214.023438 C 346.734375 213.25 349.613281 212.109375 352.347656 210.605469 C 353.691406 209.882812 354.980469 209.070312 356.214844 208.171875 C 357.449219 207.273438 358.621094 206.300781 359.722656 205.246094 C 360.828125 204.191406 361.859375 203.070312 362.8125 201.878906 C 363.769531 200.6875 364.640625 199.4375 365.429688 198.132812 C 366.214844 196.824219 366.914062 195.472656 367.519531 194.070312 C 368.128906 192.671875 368.640625 191.234375 369.054688 189.769531 C 369.472656 188.300781 369.789062 186.808594 370.003906 185.300781 C 370.222656 183.789062 370.339844 182.269531 370.351562 180.742188 C 370.355469 161.769531 354.269531 146.332031 334.492188 146.332031 Z M 326.390625 194.179688 C 321.90625 194.179688 318.277344 188.503906 318.277344 181.511719 C 318.277344 174.519531 321.90625 168.84375 326.390625 168.84375 C 330.875 168.84375 334.492188 174.519531 334.492188 181.511719 C 334.492188 188.503906 330.867188 194.179688 326.390625 194.179688 Z M 354.046875 193.414062 C 349.5625 193.414062 345.9375 187.75 345.9375 180.753906 C 345.9375 173.757812 349.5625 168.085938 354.046875 168.085938 C 358.53125 168.085938 362.148438 173.75 362.148438 180.753906 C 362.148438 187.757812 358.523438 193.414062 354.046875 193.414062 Z M 319.191406 296 L 342.195312 313.824219 C 342.574219 314.117188 342.890625 314.46875 343.140625 314.878906 C 343.390625 315.285156 343.558594 315.726562 343.644531 316.199219 C 343.730469 316.671875 343.730469 317.144531 343.644531 317.613281 C 343.554688 318.085938 343.386719 318.527344 343.136719 318.933594 L 334.933594 332.347656 C 334.632812 332.835938 334.25 333.234375 333.773438 333.546875 C 333.300781 333.863281 332.78125 334.0625 332.21875 334.148438 C 327.875 330.890625 318.644531 323.085938 316.585938 314.210938 C 316.230469 312.679688 316.015625 311.125 315.949219 309.554688 C 315.878906 307.984375 315.957031 306.417969 316.179688 304.859375 C 316.402344 303.304688 316.765625 301.78125 317.273438 300.289062 C 317.78125 298.800781 318.417969 297.371094 319.191406 296 Z M 301.371094 121.546875 C 291.464844 111.738281 280.34375 103.585938 268.011719 97.078125 C 273.421875 88.949219 285.785156 73.957031 295.753906 76.53125 C 304.390625 78.773438 303.902344 103.664062 301.371094 121.546875 Z M 170.664062 334.394531 L 170.664062 354.128906 C 170.664062 354.5 170.628906 354.863281 170.554688 355.226562 C 170.484375 355.589844 170.375 355.941406 170.234375 356.285156 C 170.09375 356.625 169.917969 356.953125 169.714844 357.257812 C 169.507812 357.566406 169.273438 357.851562 169.011719 358.113281 C 168.75 358.375 168.464844 358.609375 168.15625 358.8125 C 167.851562 359.019531 167.523438 359.191406 167.183594 359.335938 C 166.839844 359.476562 166.488281 359.582031 166.125 359.65625 C 165.761719 359.726562 165.398438 359.765625 165.027344 359.765625 L 150.5 359.765625 C 149.964844 359.761719 149.4375 359.6875 148.921875 359.535156 C 148.378906 355.492188 147.640625 347.382812 149.632812 342.910156 C 151.8125 337.992188 165.398438 335.269531 170.664062 334.394531 Z M 55.785156 231.195312 C 56.582031 235.007812 57.578125 238.765625 58.765625 242.476562 C 47.957031 248.972656 37.871094 248.207031 28.109375 240.1875 C 17.671875 231.617188 14.199219 222.253906 15.402344 217.179688 C 15.605469 216.339844 16.113281 214.882812 17.332031 214.605469 C 17.382812 214.597656 17.433594 214.589844 17.488281 214.585938 C 17.949219 214.875 18.824219 217.003906 19.40625 218.425781 C 21.601562 223.738281 24.90625 231.785156 36.136719 234.347656 L 36.285156 234.375 L 36.296875 234.375 C 37.945312 234.773438 39.617188 235.003906 41.3125 235.066406 C 43.003906 235.128906 44.6875 235.023438 46.359375 234.75 C 48.035156 234.476562 49.664062 234.039062 51.25 233.441406 C 52.835938 232.84375 54.347656 232.09375 55.785156 231.195312 Z M 28.773438 252.019531 C 25.230469 254.667969 20.253906 257.046875 14.542969 255.941406 C 9.761719 255.007812 7.410156 250.867188 6.617188 249.128906 C 5.820312 247.507812 5.441406 245.796875 5.472656 243.992188 C 5.972656 244.367188 6.4375 244.789062 6.855469 245.257812 C 10.195312 248.835938 13.75 250.5 17.414062 250.183594 C 19.976562 249.902344 22.210938 248.894531 24.121094 247.164062 C 25.820312 248.4375 27.980469 250.300781 28.773438 252.015625 Z M 250.816406 214.191406 C 250.816406 231.144531 235.65625 244.890625 216.957031 244.890625 C 198.257812 244.890625 183.097656 231.144531 183.097656 214.191406 C 183.097656 197.234375 198.257812 183.488281 216.957031 183.488281 C 235.65625 183.488281 250.8125 197.234375 250.8125 214.1875 Z M 200.933594 123.679688 C 202.601562 109.445312 207.046875 82.160156 216.605469 82.160156 C 226.722656 82.160156 233.558594 102.601562 236.0625 111.523438 C 236.21875 112.085938 236.273438 112.65625 236.226562 113.238281 C 236.175781 113.820312 236.027344 114.375 235.78125 114.90625 C 235.53125 115.433594 235.199219 115.902344 234.78125 116.3125 C 234.363281 116.71875 233.890625 117.042969 233.355469 117.28125 L 207.761719 128.6875 C 206.960938 129.042969 206.125 129.175781 205.253906 129.082031 C 204.382812 128.992188 203.597656 128.683594 202.890625 128.167969 C 202.183594 127.648438 201.65625 126.988281 201.308594 126.1875 C 200.957031 125.382812 200.832031 124.546875 200.933594 123.679688 Z M 200.933594 123.679688 " fill-opacity="1" fill-rule="nonzero"/></svg>