<svg xmlns="http://www.w3.org/2000/svg" xmlns:xlink="http://www.w3.org/1999/xlink" width="500" zoomAndPan="magnify" viewBox="0 0 375 374.999991" height="500" preserveAspectRatio="xMidYMid meet" version="1.0"><defs><clipPath id="6a7f5213e9"><path d="M 143 249 L 180 249 L 180 259.875 L 143 259.875 Z M 143 249 " clip-rule="nonzero"/></clipPath><clipPath id="7946a1df0c"><path d="M 195 249 L 232 249 L 232 259.875 L 195 259.875 Z M 195 249 " clip-rule="nonzero"/></clipPath><clipPath id="222b77af9f"><path d="M 141 115.125 L 235 115.125 L 235 198 L 141 198 Z M 141 115.125 " clip-rule="nonzero"/></clipPath><clipPath id="f34be9341e"><path d="M 197.738281 124.683594 L 242.839844 124.683594 L 242.839844 217.316406 L 197.738281 217.316406 Z M 197.738281 124.683594 " clip-rule="nonzero"/></clipPath><clipPath id="9ed521abea"><path d="M 197.738281 131 L 242.839844 131 L 242.839844 182 L 197.738281 182 Z M 197.738281 131 " clip-rule="nonzero"/></clipPath><clipPath id="60a83808bc"><path d="M 145 184 L 290 184 L 290 372.75 L 145 372.75 Z M 145 184 " clip-rule="nonzero"/></clipPath><clipPath id="c244dbd8d5"><path d="M 200 186 L 332 186 L 332 372.75 L 200 372.75 Z M 200 186 " clip-rule="nonzero"/></clipPath><clipPath id="8ae18f3771"><path d="M 221 189 L 288 189 L 288 372.75 L 221 372.75 Z M 221 189 " clip-rule="nonzero"/></clipPath><clipPath id="e4749729ab"><path d="M 138 185 L 198 185 L 198 372.75 L 138 372.75 Z M 138 185 " clip-rule="nonzero"/></clipPath><clipPath id="a3cb659d05"><path d="M 35.859375 0 L 124 0 L 124 115 L 35.859375 115 Z M 35.859375 0 " clip-rule="nonzero"/></clipPath><clipPath id="b7a179e3e6"><path d="M 222 316 L 279 316 L 279 372.75 L 222 372.75 Z M 222 316 " clip-rule="nonzero"/></clipPath></defs><g clip-path="url(#6a7f5213e9)"><path fill="#000000" d="M 143.558594 249.535156 L 179.746094 249.535156 L 179.746094 259.875 L 143.558594 259.875 Z M 143.558594 249.535156 " fill-opacity="1" fill-rule="nonzero"/></g><path fill="#000000" d="M 128.796875 181.554688 L 134.019531 197.21875 C 135.285156 195.695312 136.914062 194.609375 138.671875 193.9375 L 131.640625 172.84375 C 130.96875 170.800781 129.496094 169.199219 127.558594 168.292969 C 125.59375 167.390625 123.421875 167.339844 121.40625 168.140625 L 120.863281 168.347656 L 122.59375 174.34375 C 125.488281 175.867188 127.738281 178.402344 128.796875 181.554688 Z M 128.796875 181.554688 " fill-opacity="1" fill-rule="nonzero"/><path fill="#000000" d="M 148.726562 239.195312 L 148.726562 244.367188 L 174.574219 244.367188 L 174.574219 223.84375 C 174.574219 221.335938 173.359375 218.984375 171.320312 217.535156 L 146.011719 199.441406 C 143.453125 197.632812 139.914062 198.125 137.976562 200.578125 C 136.761719 202.078125 136.398438 204.015625 136.863281 205.773438 L 136.992188 206.1875 L 137.070312 206.421875 C 137.433594 207.351562 138.050781 208.203125 138.878906 208.875 L 158.085938 224.257812 C 159.222656 225.136719 159.402344 226.761719 158.5 227.875 C 157.621094 229.011719 155.992188 229.191406 154.878906 228.289062 L 135.648438 212.933594 C 133.789062 211.410156 132.519531 209.417969 131.902344 207.246094 L 123.886719 183.210938 C 123.164062 181.039062 121.535156 179.304688 119.46875 178.480469 C 117.582031 177.730469 115.511719 177.730469 113.652344 178.480469 L 113.109375 178.6875 L 124.429688 217.171875 C 124.871094 218.75 125.800781 220.09375 127.09375 221.101562 L 147.71875 237.15625 C 148.367188 237.644531 148.726562 238.394531 148.726562 239.195312 Z M 148.726562 239.195312 " fill-opacity="1" fill-rule="nonzero"/><path fill="#000000" d="M 261.347656 178.480469 C 259.488281 177.730469 257.417969 177.730469 255.53125 178.480469 C 253.464844 179.304688 251.835938 181.039062 251.113281 183.210938 L 243.074219 207.300781 C 242.480469 209.445312 241.210938 211.433594 239.351562 212.933594 L 220.121094 228.289062 C 219.007812 229.191406 217.378906 229.011719 216.5 227.875 C 215.597656 226.761719 215.777344 225.136719 216.914062 224.257812 L 236.121094 208.875 C 236.921875 208.230469 237.542969 207.402344 237.902344 206.472656 C 237.929688 206.371094 237.957031 206.265625 238.007812 206.164062 C 238.007812 206.136719 238.109375 205.878906 238.109375 205.828125 L 238.109375 205.773438 C 238.601562 204.015625 238.238281 202.078125 237.023438 200.578125 C 235.0625 198.125 231.546875 197.632812 228.988281 199.441406 L 203.679688 217.535156 C 201.640625 218.984375 200.425781 221.335938 200.425781 223.84375 L 200.425781 244.367188 L 226.273438 244.367188 L 226.273438 239.195312 C 226.273438 238.394531 226.632812 237.644531 227.28125 237.15625 L 247.90625 221.101562 C 249.199219 220.09375 250.128906 218.75 250.570312 217.171875 L 261.890625 178.6875 Z M 261.347656 178.480469 " fill-opacity="1" fill-rule="nonzero"/><path fill="#000000" d="M 240.980469 197.21875 L 246.203125 181.554688 C 247.261719 178.402344 249.511719 175.867188 252.40625 174.316406 L 254.136719 168.347656 L 253.59375 168.140625 C 251.578125 167.339844 249.40625 167.390625 247.441406 168.292969 C 245.503906 169.199219 244.03125 170.800781 243.359375 172.871094 L 236.328125 193.9375 C 238.085938 194.609375 239.714844 195.695312 240.980469 197.21875 Z M 240.980469 197.21875 " fill-opacity="1" fill-rule="nonzero"/><g clip-path="url(#7946a1df0c)"><path fill="#000000" d="M 195.253906 249.535156 L 231.441406 249.535156 L 231.441406 259.875 L 195.253906 259.875 Z M 195.253906 249.535156 " fill-opacity="1" fill-rule="nonzero"/></g><g clip-path="url(#222b77af9f)"><path fill="#000000" d="M 234.027344 144.59375 L 234.027344 141.59375 C 234.027344 126.964844 222.164062 115.125 207.558594 115.125 L 206.238281 115.125 C 199.210938 115.125 192.488281 117.917969 187.527344 122.878906 C 182.5625 117.917969 175.816406 115.125 168.8125 115.125 L 167.492188 115.125 C 152.863281 115.125 141.023438 126.988281 141.023438 141.59375 L 141.023438 144.59375 C 141.023438 152.164062 144.257812 159.351562 149.917969 164.390625 L 187.550781 197.839844 L 225.1875 164.390625 C 230.847656 159.378906 234.078125 152.164062 234.078125 144.59375 Z M 203.007812 156.480469 L 192.667969 156.480469 L 192.667969 166.820312 L 182.332031 166.820312 L 182.332031 156.480469 L 171.992188 156.480469 L 171.992188 146.144531 L 182.332031 146.144531 L 182.332031 135.804688 L 192.667969 135.804688 L 192.667969 146.144531 L 203.007812 146.144531 Z M 203.007812 156.480469 " fill-opacity="1" fill-rule="nonzero"/></g><path fill="#2d1929" d="M 166.378906 106.359375 C 166.378906 106.359375 166.066406 142.445312 142.875 168.945312 C 119.683594 195.441406 147.6875 232.515625 147.6875 232.515625 L 213.617188 217.316406 L 218.925781 131.417969 Z M 166.378906 106.359375 " fill-opacity="1" fill-rule="nonzero"/><g clip-path="url(#f34be9341e)"><path fill="#e39c76" d="M 242.839844 217.316406 L 197.738281 217.316406 L 197.738281 124.683594 L 242.839844 124.683594 Z M 242.839844 217.316406 " fill-opacity="1" fill-rule="nonzero"/></g><g clip-path="url(#9ed521abea)"><path fill="#d48f6e" d="M 242.699219 131.359375 C 242.472656 134.203125 242.027344 137.007812 241.367188 139.78125 C 240.703125 142.554688 239.828125 145.261719 238.746094 147.898438 C 237.664062 150.535156 236.382812 153.074219 234.90625 155.511719 C 233.425781 157.949219 231.769531 160.261719 229.929688 162.441406 C 215.816406 178.988281 196.5625 180.980469 192.550781 181.320312 L 192.550781 148.269531 Z M 242.699219 131.359375 " fill-opacity="1" fill-rule="nonzero"/></g><path fill="#d7981a" d="M 218.222656 187.542969 C 218.222656 187.542969 174.496094 179.609375 153.398438 195.152344 C 132.300781 210.699219 107.890625 301.171875 116.164062 322.269531 C 124.441406 343.363281 142.808594 348.90625 163.328125 322.269531 C 183.847656 295.628906 218.222656 187.542969 218.222656 187.542969 Z M 218.222656 187.542969 " fill-opacity="1" fill-rule="nonzero"/><path fill="#eba284" d="M 97.210938 174.949219 C 97.210938 174.949219 84.328125 152.296875 81.84375 152.296875 C 79.363281 152.296875 77.875 165.089844 83.980469 176.851562 C 90.085938 188.617188 97.664062 180.890625 97.210938 174.949219 Z M 97.210938 174.949219 " fill-opacity="1" fill-rule="nonzero"/><path fill="#e39c76" d="M 160.015625 105.289062 C 161.300781 95.105469 163.742188 88.910156 164.359375 82.242188 C 165.875 65.761719 164.070312 53.1875 175.84375 41.960938 C 179.457031 37.746094 183.59375 34.132812 188.253906 31.121094 C 205.226562 18.730469 233.355469 18.390625 252.386719 32.636719 C 274.261719 49.042969 273.996094 77.3125 273.898438 84.277344 C 273.59375 117.015625 250.847656 138.980469 240.925781 147.054688 C 235.535156 152.222656 229.558594 156.589844 222.996094 160.15625 C 215.71875 164.03125 196.207031 174.386719 182.140625 165.328125 C 178.46875 162.960938 173.429688 157.054688 167.480469 143.113281 C 159.785156 125.128906 158.742188 115.484375 160.015625 105.289062 Z M 160.015625 105.289062 " fill-opacity="1" fill-rule="nonzero"/><path fill="#2d1929" d="M 187.726562 120.097656 C 184.019531 118.03125 182.117188 115.832031 182.066406 113.570312 C 181.960938 108.535156 190.65625 107.886719 193.410156 92.890625 C 193.429688 92.773438 193.488281 92.683594 193.585938 92.617188 C 193.679688 92.550781 193.785156 92.53125 193.898438 92.550781 C 194.011719 92.570312 194.101562 92.628906 194.167969 92.722656 C 194.234375 92.820312 194.257812 92.925781 194.238281 93.039062 C 191.433594 108.285156 182.8125 109.078125 182.902344 113.546875 C 182.945312 115.492188 184.707031 117.453125 188.140625 119.339844 C 188.246094 119.394531 188.3125 119.480469 188.347656 119.597656 C 188.378906 119.710938 188.367188 119.820312 188.3125 119.925781 C 188.253906 120.03125 188.167969 120.097656 188.054688 120.132812 C 187.941406 120.167969 187.832031 120.15625 187.726562 120.097656 Z M 187.726562 120.097656 " fill-opacity="1" fill-rule="nonzero"/><path fill="#2d1929" d="M 180.859375 94.03125 C 180.542969 97.738281 178.375 100.582031 175.953125 100.375 C 173.527344 100.167969 171.867188 97.007812 172.171875 93.3125 C 172.476562 89.613281 174.652344 86.757812 177.078125 86.957031 C 179.503906 87.15625 181.164062 90.324219 180.859375 94.03125 Z M 180.859375 94.03125 " fill-opacity="1" fill-rule="nonzero"/><path fill="#2d1929" d="M 218.183594 97.160156 C 217.875 100.863281 215.699219 103.703125 213.285156 103.503906 C 210.867188 103.304688 209.195312 100.136719 209.503906 96.429688 C 209.808594 92.722656 211.984375 89.886719 214.410156 90.085938 C 216.832031 90.285156 218.464844 93.453125 218.183594 97.160156 Z M 218.183594 97.160156 " fill-opacity="1" fill-rule="nonzero"/><path fill="#2d1929" d="M 190.589844 74.574219 C 190.386719 74.574219 190.207031 74.507812 190.050781 74.375 C 189.695312 74.066406 181.324219 67.0625 171.585938 72.628906 C 171.382812 72.742188 171.171875 72.769531 170.953125 72.707031 C 170.730469 72.648438 170.5625 72.515625 170.449219 72.3125 C 170.339844 72.117188 170.3125 71.90625 170.375 71.6875 C 170.4375 71.46875 170.566406 71.300781 170.765625 71.1875 C 181.519531 65.042969 191.027344 73.035156 191.125 73.117188 C 191.257812 73.230469 191.347656 73.371094 191.390625 73.539062 C 191.433594 73.703125 191.425781 73.871094 191.367188 74.03125 C 191.304688 74.195312 191.203125 74.324219 191.0625 74.425781 C 190.921875 74.523438 190.761719 74.574219 190.589844 74.574219 Z M 190.589844 74.574219 " fill-opacity="1" fill-rule="nonzero"/><path fill="#2d1929" d="M 227.011719 81.398438 C 226.730469 81.398438 226.507812 81.285156 226.339844 81.058594 C 219.722656 72.007812 209.207031 74.996094 208.765625 75.117188 C 208.554688 75.164062 208.359375 75.128906 208.171875 75.019531 C 207.988281 74.910156 207.863281 74.753906 207.804688 74.546875 C 207.742188 74.339844 207.757812 74.140625 207.851562 73.945312 C 207.945312 73.753906 208.09375 73.617188 208.296875 73.539062 C 208.410156 73.539062 220.351562 70.074219 227.671875 80.082031 C 227.871094 80.355469 227.894531 80.640625 227.742188 80.941406 C 227.59375 81.242188 227.347656 81.394531 227.011719 81.398438 Z M 227.011719 81.398438 " fill-opacity="1" fill-rule="nonzero"/><g clip-path="url(#60a83808bc)"><path fill="#ededed" d="M 227.050781 186.5 C 227.050781 186.5 288.773438 204.699219 289.601562 233.8125 C 290.429688 262.199219 279.484375 372.511719 279.484375 372.511719 L 149.484375 372.511719 C 149.484375 372.511719 141.351562 260.269531 147.6875 232.515625 C 154.175781 204.0625 188.230469 177.140625 227.050781 186.5 Z M 227.050781 186.5 " fill-opacity="1" fill-rule="nonzero"/></g><g clip-path="url(#c244dbd8d5)"><path fill="#efbd42" d="M 227.003906 186.292969 C 241.140625 187.582031 277.472656 192.910156 298.539062 221.320312 C 304.378906 229.210938 304.5625 233.359375 315.707031 277.453125 C 328.25 327.089844 337.328125 338.367188 327.289062 354.457031 C 324.285156 359.289062 314.117188 372.15625 278.472656 372.484375 C 262.804688 360.515625 248.429688 347.152344 235.34375 332.398438 C 222.261719 317.648438 210.710938 301.777344 200.699219 284.792969 L 220.277344 256.191406 L 272.039062 294.339844 L 263.761719 245.691406 C 263.929688 244.132812 264.03125 242.570312 264.070312 241.003906 C 264.105469 239.4375 264.078125 237.871094 263.988281 236.304688 C 263.894531 234.742188 263.738281 233.183594 263.519531 231.628906 C 263.296875 230.078125 263.015625 228.539062 262.667969 227.007812 C 262.316406 225.480469 261.90625 223.96875 261.433594 222.472656 C 260.960938 220.980469 260.429688 219.507812 259.832031 218.054688 C 259.238281 216.605469 258.585938 215.183594 257.875 213.785156 C 257.160156 212.390625 256.394531 211.023438 255.566406 209.691406 C 254.742188 208.359375 253.863281 207.0625 252.933594 205.800781 C 252 204.539062 251.015625 203.320312 249.984375 202.140625 C 248.949219 200.960938 247.871094 199.828125 246.746094 198.738281 C 245.617188 197.644531 244.449219 196.605469 243.234375 195.609375 C 242.023438 194.617188 240.769531 193.675781 239.480469 192.785156 C 238.1875 191.894531 236.863281 191.058594 235.503906 190.28125 C 234.144531 189.5 232.753906 188.777344 231.335938 188.109375 C 229.917969 187.445312 228.472656 186.839844 227.003906 186.292969 Z M 227.003906 186.292969 " fill-opacity="1" fill-rule="nonzero"/></g><path fill="#d7981a" d="M 109.082031 205.527344 C 119.167969 231.007812 126.964844 252.617188 132.546875 268.699219 C 148.914062 315.855469 151.296875 329.988281 143.980469 337.894531 C 137.816406 344.554688 126.410156 345.011719 119.308594 343.304688 C 78.1875 333.460938 73.355469 225.390625 72.976562 215.15625 Z M 109.082031 205.527344 " fill-opacity="1" fill-rule="nonzero"/><path fill="#e39c76" d="M 197.730469 185.589844 C 197.265625 187.203125 194.59375 197.230469 200.640625 206.273438 C 201.351562 207.324219 204.777344 212.410156 209.675781 214.015625 C 219.019531 217.066406 233.613281 207.496094 242.863281 188.699219 C 229.839844 177.050781 211.925781 176.539062 197.730469 185.589844 Z M 197.730469 185.589844 " fill-opacity="1" fill-rule="nonzero"/><g clip-path="url(#8ae18f3771)"><path fill="#efbd42" d="M 242.839844 189.335938 C 242.839844 189.335938 227.398438 205.195312 223.652344 237.792969 C 219.902344 270.386719 223.652344 372.511719 223.652344 372.511719 L 278.589844 372.511719 L 287.617188 278.5625 C 287.617188 278.5625 287.964844 198.1875 242.839844 189.335938 Z M 242.839844 189.335938 " fill-opacity="1" fill-rule="nonzero"/></g><g clip-path="url(#e4749729ab)"><path fill="#d7981a" d="M 197.730469 185.613281 C 197.730469 185.613281 183.265625 200.621094 175.496094 237.792969 C 167.726562 274.960938 175.496094 372.511719 175.496094 372.511719 L 145.273438 372.511719 C 145.273438 372.511719 135.90625 253.699219 139.96875 230.363281 C 144.03125 207.023438 152.628906 187.773438 197.730469 185.613281 Z M 197.730469 185.613281 " fill-opacity="1" fill-rule="nonzero"/></g><g clip-path="url(#a3cb659d05)"><path fill="#86ebf9" d="M 77.113281 1.382812 C 71.113281 7.726562 56.089844 21.980469 38.65625 26.359375 C 38.253906 26.457031 37.882812 26.617188 37.535156 26.839844 C 37.1875 27.066406 36.886719 27.339844 36.632812 27.664062 C 36.378906 27.988281 36.183594 28.347656 36.050781 28.734375 C 35.917969 29.125 35.851562 29.527344 35.851562 29.941406 L 35.851562 60.816406 C 35.851562 77.410156 45.945312 93.078125 63.113281 103.007812 L 81.316406 113.5625 C 81.933594 113.917969 82.597656 114.085938 83.3125 114.058594 C 84.023438 114.03125 84.671875 113.816406 85.261719 113.414062 L 97.292969 105.140625 C 113.996094 93.707031 123.554688 77.277344 123.554688 60.019531 L 123.554688 29.882812 C 123.554688 29.46875 123.484375 29.066406 123.347656 28.675781 C 123.214844 28.285156 123.019531 27.925781 122.761719 27.601562 C 122.507812 27.273438 122.203125 27 121.855469 26.777344 C 121.507812 26.550781 121.132812 26.390625 120.734375 26.292969 C 103.398438 21.867188 88.464844 7.695312 82.484375 1.371094 C 82.308594 1.191406 82.121094 1.027344 81.914062 0.882812 C 81.707031 0.742188 81.488281 0.621094 81.257812 0.519531 C 81.027344 0.421875 80.789062 0.347656 80.542969 0.296875 C 80.296875 0.246094 80.046875 0.222656 79.796875 0.222656 C 79.542969 0.222656 79.296875 0.25 79.050781 0.300781 C 78.804688 0.351562 78.566406 0.425781 78.335938 0.527344 C 78.105469 0.625 77.886719 0.746094 77.679688 0.890625 C 77.472656 1.035156 77.285156 1.199219 77.113281 1.382812 Z M 77.113281 1.382812 " fill-opacity="1" fill-rule="nonzero"/></g><path fill="#40c2d6" d="M 66.339844 97.101562 C 51.273438 88.339844 42.28125 74.65625 42.28125 60.460938 L 42.28125 31.675781 C 58.390625 26.988281 72.007812 15.347656 79.800781 7.496094 C 87.539062 15.304688 101.082031 26.878906 117.101562 31.621094 L 117.101562 59.699219 C 117.101562 74.789062 108.554688 89.308594 93.636719 99.515625 L 83.027344 106.789062 Z M 66.339844 97.101562 " fill-opacity="1" fill-rule="nonzero"/><path fill="#86ebf9" d="M 74.265625 72.429688 L 61.789062 57.414062 C 61.554688 57.132812 61.414062 56.808594 61.367188 56.445312 C 61.320312 56.082031 61.375 55.734375 61.53125 55.402344 C 61.6875 55.070312 61.921875 54.808594 62.230469 54.613281 C 62.539062 54.417969 62.878906 54.320312 63.246094 54.320312 C 63.917969 54.320312 63.246094 54.054688 75.035156 60.410156 L 94.835938 41.6875 C 95.199219 41.339844 95.632812 41.171875 96.132812 41.175781 C 96.488281 41.171875 96.820312 41.265625 97.121094 41.449219 C 97.425781 41.636719 97.65625 41.886719 97.820312 42.203125 C 97.980469 42.519531 98.046875 42.855469 98.019531 43.207031 C 97.992188 43.5625 97.875 43.882812 97.664062 44.167969 L 77.253906 72.296875 C 77.085938 72.539062 76.875 72.726562 76.617188 72.867188 C 76.359375 73.007812 76.085938 73.085938 75.792969 73.097656 C 75.5 73.113281 75.21875 73.058594 74.953125 72.941406 C 74.683594 72.824219 74.457031 72.652344 74.265625 72.429688 Z M 74.265625 72.429688 " fill-opacity="1" fill-rule="nonzero"/><path fill="#eba284" d="M 219.53125 244.011719 C 219.53125 244.011719 242.9375 255.453125 243.101562 257.9375 C 243.269531 260.417969 230.578125 262.703125 218.457031 257.339844 C 206.335938 251.980469 213.566406 243.871094 219.53125 244.011719 Z M 219.53125 244.011719 " fill-opacity="1" fill-rule="nonzero"/><path fill="#e73f46" d="M 222.898438 252.972656 L 148.136719 327.703125 L 80.886719 260.460938 C 72.273438 251.871094 65.5 242.019531 60.558594 230.910156 C 39.210938 182.859375 100.777344 140.882812 138.480469 177.523438 L 152.605469 191.238281 C 156.589844 187.710938 160.582031 184.179688 164.574219 180.648438 C 205.117188 144.777344 263.863281 196.558594 232.917969 240.984375 C 229.929688 245.273438 226.589844 249.269531 222.898438 252.972656 Z M 222.898438 252.972656 " fill-opacity="1" fill-rule="nonzero"/><path fill="#ededed" d="M 140.367188 199.605469 L 157.402344 199.605469 C 157.867188 199.605469 158.316406 199.691406 158.75 199.871094 C 159.179688 200.050781 159.558594 200.304688 159.890625 200.632812 C 160.21875 200.964844 160.472656 201.34375 160.652344 201.773438 C 160.828125 202.203125 160.917969 202.652344 160.917969 203.121094 L 160.917969 270.984375 C 160.917969 271.449219 160.828125 271.898438 160.652344 272.328125 C 160.472656 272.757812 160.21875 273.140625 159.890625 273.46875 C 159.558594 273.800781 159.179688 274.054688 158.75 274.230469 C 158.316406 274.410156 157.867188 274.5 157.402344 274.5 L 140.367188 274.5 C 139.898438 274.5 139.453125 274.410156 139.019531 274.230469 C 138.589844 274.054688 138.210938 273.800781 137.878906 273.46875 C 137.550781 273.140625 137.296875 272.757812 137.117188 272.328125 C 136.941406 271.898438 136.851562 271.449219 136.851562 270.984375 L 136.851562 203.121094 C 136.851562 202.652344 136.941406 202.203125 137.117188 201.773438 C 137.296875 201.34375 137.550781 200.964844 137.878906 200.632812 C 138.210938 200.304688 138.589844 200.050781 139.019531 199.871094 C 139.453125 199.691406 139.898438 199.605469 140.367188 199.605469 Z M 140.367188 199.605469 " fill-opacity="1" fill-rule="nonzero"/><path fill="#ededed" d="M 186.335938 228.535156 L 186.335938 245.570312 C 186.335938 246.035156 186.246094 246.484375 186.070312 246.914062 C 185.890625 247.34375 185.636719 247.726562 185.304688 248.054688 C 184.976562 248.382812 184.597656 248.636719 184.164062 248.816406 C 183.734375 248.996094 183.285156 249.085938 182.820312 249.085938 L 114.949219 249.085938 C 114.484375 249.085938 114.035156 248.996094 113.605469 248.816406 C 113.171875 248.636719 112.792969 248.382812 112.464844 248.054688 C 112.132812 247.726562 111.878906 247.34375 111.699219 246.914062 C 111.523438 246.484375 111.433594 246.035156 111.433594 245.570312 L 111.433594 228.535156 C 111.433594 228.066406 111.523438 227.621094 111.699219 227.1875 C 111.878906 226.757812 112.132812 226.378906 112.464844 226.046875 C 112.792969 225.71875 113.171875 225.464844 113.605469 225.285156 C 114.035156 225.109375 114.484375 225.019531 114.949219 225.019531 L 182.820312 225.019531 C 183.285156 225.019531 183.734375 225.109375 184.164062 225.285156 C 184.597656 225.464844 184.976562 225.71875 185.304688 226.046875 C 185.636719 226.378906 185.890625 226.757812 186.070312 227.1875 C 186.246094 227.621094 186.335938 228.066406 186.335938 228.535156 Z M 186.335938 228.535156 " fill-opacity="1" fill-rule="nonzero"/><path fill="#f5b493" d="M 73.753906 174.992188 C 75.160156 169.613281 77.519531 168.265625 78.074219 167.984375 C 80.382812 166.792969 83.144531 168.769531 88.589844 172.78125 C 95.007812 177.507812 96.035156 179.945312 95.332031 182.066406 C 95.195312 182.515625 94.96875 182.914062 94.652344 183.265625 C 92.070312 186.085938 84.726562 183.820312 84.726562 183.820312 C 84.726562 183.820312 91.03125 187.765625 87.851562 191.472656 C 84.675781 195.175781 77.699219 191.304688 77.699219 191.304688 C 77.699219 191.304688 81.769531 195.078125 79.28125 198.113281 C 76.789062 201.152344 69.863281 197.660156 69.863281 197.660156 C 69.863281 197.660156 73.496094 202.582031 70.015625 205.105469 C 66.53125 207.628906 52.226562 200.027344 51.886719 195.980469 C 51.546875 191.933594 59.117188 190.394531 59.117188 190.394531 C 59.117188 190.394531 58.480469 183.859375 65.6875 183.214844 C 65.6875 183.214844 64.703125 177.132812 73.753906 174.992188 Z M 73.753906 174.992188 " fill-opacity="1" fill-rule="nonzero"/><path fill="#2d1929" d="M 85.617188 184.480469 C 85.402344 184.480469 86.15625 184.992188 73.503906 175.320312 C 73.414062 175.253906 73.363281 175.160156 73.347656 175.046875 C 73.335938 174.933594 73.363281 174.832031 73.429688 174.742188 C 73.5 174.652344 73.589844 174.601562 73.703125 174.585938 C 73.816406 174.570312 73.917969 174.59375 74.011719 174.660156 L 85.875 183.761719 C 86.011719 183.882812 86.046875 184.03125 85.988281 184.207031 C 85.925781 184.378906 85.800781 184.472656 85.617188 184.480469 Z M 85.617188 184.480469 " fill-opacity="1" fill-rule="nonzero"/><path fill="#2d1929" d="M 77.667969 191.753906 C 77.484375 191.753906 78.320312 192.273438 65.453125 183.585938 C 65.359375 183.523438 65.300781 183.4375 65.28125 183.324219 C 65.257812 183.214844 65.277344 183.109375 65.339844 183.015625 C 65.402344 182.921875 65.492188 182.863281 65.605469 182.839844 C 65.71875 182.816406 65.820312 182.835938 65.917969 182.898438 L 77.90625 190.925781 C 78.019531 190.957031 78.105469 191.027344 78.164062 191.132812 C 78.222656 191.234375 78.234375 191.34375 78.199219 191.457031 C 78.167969 191.574219 78.097656 191.660156 77.996094 191.714844 C 77.890625 191.773438 77.78125 191.785156 77.667969 191.753906 Z M 77.667969 191.753906 " fill-opacity="1" fill-rule="nonzero"/><path fill="#2d1929" d="M 69.832031 198.074219 C 69.632812 198.074219 70.328125 198.503906 58.886719 190.742188 C 58.789062 190.679688 58.730469 190.589844 58.710938 190.476562 C 58.6875 190.363281 58.707031 190.261719 58.769531 190.164062 C 58.835938 190.070312 58.921875 190.011719 59.035156 189.988281 C 59.148438 189.96875 59.253906 189.992188 59.347656 190.054688 L 70.105469 197.320312 C 70.28125 197.441406 70.332031 197.601562 70.257812 197.800781 C 70.1875 198.003906 70.042969 198.09375 69.832031 198.074219 Z M 69.832031 198.074219 " fill-opacity="1" fill-rule="nonzero"/><g clip-path="url(#b7a179e3e6)"><path fill="#d7981a" d="M 222.433594 316.742188 C 225.863281 322.472656 229.632812 327.964844 233.75 333.222656 C 237.867188 338.480469 242.292969 343.460938 247.035156 348.164062 C 251.773438 352.867188 256.789062 357.253906 262.082031 361.328125 C 267.371094 365.402344 272.898438 369.128906 278.65625 372.511719 L 223.585938 372.511719 C 223.039062 353.988281 222.65625 335.398438 222.433594 316.742188 Z M 222.433594 316.742188 " fill-opacity="1" fill-rule="nonzero"/></g><path fill="#d7981a" d="M 232.183594 262.902344 L 287.617188 309.519531 C 287.617188 309.519531 312.679688 328.613281 314.53125 344.117188 C 312.390625 326.40625 301.789062 311.851562 286.109375 303.488281 C 284.765625 280.058594 283.414062 256.617188 282.058594 233.167969 L 279.964844 296.488281 Z M 232.183594 262.902344 " fill-opacity="1" fill-rule="nonzero"/><path fill="#2d1929" d="M 229.78125 35.234375 C 229.78125 35.234375 214.9375 47.296875 212.152344 62.453125 C 212.152344 62.453125 185.246094 53.417969 166.378906 59.484375 C 164.867188 56.886719 163.835938 54.113281 163.285156 51.160156 C 160.449219 35.53125 172.667969 16.414062 188.148438 10.183594 C 210.613281 1.082031 242.832031 17.910156 242.832031 17.910156 C 242.832031 17.910156 289.785156 22.246094 293.5 62.453125 C 297.214844 102.660156 286.699219 148.367188 307.109375 179.34375 C 327.523438 210.316406 307.746094 245.675781 307.746094 245.675781 C 286.085938 205.230469 269.503906 195.210938 257.929688 194.300781 C 254.859375 194.050781 247.175781 194.0625 241.6875 188.734375 C 235.78125 183.007812 235.722656 174.394531 235.65625 165.304688 C 235.605469 157.460938 235.5 141.707031 245.484375 130.558594 C 247.96875 127.785156 248.515625 125.632812 254.800781 121.214844 C 260.320312 117.335938 263.480469 112.570312 264.863281 107.691406 C 267.121094 99.738281 265.277344 88.785156 258.914062 85.128906 C 254.859375 82.796875 252.429688 85.089844 246.710938 83.195312 C 239.050781 80.652344 235.003906 73.613281 232.710938 69.632812 C 224.414062 55.179688 228.589844 39.289062 229.78125 35.234375 Z M 229.78125 35.234375 " fill-opacity="1" fill-rule="nonzero"/><path fill="#e39c76" d="M 250.382812 95 C 254.007812 86.054688 262.910156 81.207031 270.242188 84.1875 C 277.574219 87.164062 280.648438 96.828125 277.035156 105.777344 C 273.417969 114.730469 264.515625 119.570312 257.175781 116.59375 C 249.839844 113.613281 246.769531 103.949219 250.382812 95 Z M 250.382812 95 " fill-opacity="1" fill-rule="nonzero"/><path fill="#2d1929" d="M 256.375 107.210938 C 256.539062 107.210938 260.570312 106.582031 260.941406 102.59375 C 261.207031 99.839844 256.242188 99.035156 256.191406 99.027344 C 256.058594 99.007812 255.960938 98.9375 255.894531 98.820312 C 255.828125 98.703125 255.820312 98.582031 255.871094 98.457031 C 256.042969 98.042969 260.222656 88.324219 266.867188 88.652344 C 272.65625 88.933594 272.449219 95.511719 272.449219 95.578125 C 272.449219 95.691406 272.410156 95.789062 272.328125 95.871094 C 272.25 95.953125 272.152344 95.992188 272.039062 95.992188 C 271.921875 95.992188 271.824219 95.953125 271.746094 95.871094 C 271.664062 95.789062 271.625 95.691406 271.625 95.578125 C 271.625 95.347656 271.78125 89.785156 266.824219 89.503906 C 261.496094 89.234375 257.722656 96.421875 256.847656 98.339844 C 258.277344 98.664062 262.042969 99.78125 261.769531 102.710938 C 261.332031 107.351562 256.53125 108.0625 256.480469 108.070312 C 256.363281 108.085938 256.257812 108.054688 256.164062 107.984375 C 256.066406 107.910156 256.011719 107.8125 256 107.695312 C 255.984375 107.574219 256.011719 107.46875 256.085938 107.375 C 256.160156 107.28125 256.257812 107.226562 256.375 107.210938 Z M 256.375 107.210938 " fill-opacity="1" fill-rule="nonzero"/><path fill="#ededed" d="M 186.371094 129.175781 L 216.734375 126.578125 C 209.289062 138.417969 198.003906 142.46875 191.914062 139.027344 C 191.234375 138.621094 187.550781 136.390625 186.371094 129.175781 Z M 186.371094 129.175781 " fill-opacity="1" fill-rule="nonzero"/><path fill="#2d1929" d="M 248.863281 77.152344 C 248.863281 77.152344 239.496094 106.679688 244.847656 121 C 244.847656 121 253.902344 86.140625 263.730469 83.433594 C 273.558594 80.726562 254.800781 70.757812 248.863281 77.152344 Z M 248.863281 77.152344 " fill-opacity="1" fill-rule="nonzero"/><path fill="#eba284" d="M 203.042969 288.695312 L 209.917969 299.449219 C 209.917969 299.449219 238.214844 288.902344 239.613281 269.171875 L 227.492188 258.085938 Z M 203.042969 288.695312 " fill-opacity="1" fill-rule="nonzero"/><path fill="#f5b493" d="M 224.253906 268.269531 C 229.839844 266.335938 231.082031 263.71875 231.339844 263.109375 C 232.40625 260.558594 230.070312 257.789062 225.363281 252.351562 C 219.8125 245.941406 217.132812 245.015625 214.9375 245.972656 C 214.476562 246.164062 214.074219 246.441406 213.730469 246.800781 C 210.949219 249.78125 213.980469 257.414062 213.980469 257.414062 C 213.980469 257.414062 209.253906 251.0625 205.589844 254.734375 C 201.925781 258.410156 206.617188 265.488281 206.617188 265.488281 C 206.617188 265.488281 202.273438 261.496094 199.25 264.382812 C 196.230469 267.269531 200.527344 274.308594 200.527344 274.308594 C 200.527344 274.308594 195.007812 270.867188 192.601562 274.773438 C 190.191406 278.675781 199.5 293.1875 203.8125 293.214844 C 208.121094 293.238281 209.128906 285.074219 209.128906 285.074219 C 209.128906 285.074219 216.121094 285.195312 216.214844 277.503906 C 216.195312 277.527344 222.726562 278.058594 224.253906 268.269531 Z M 224.253906 268.269531 " fill-opacity="1" fill-rule="nonzero"/><path fill="#2d1929" d="M 224.253906 268.691406 C 223.964844 268.691406 224.734375 269.4375 213.324219 256.730469 C 213.242188 256.644531 213.199219 256.542969 213.203125 256.425781 C 213.203125 256.304688 213.25 256.207031 213.335938 256.128906 C 213.425781 256.046875 213.53125 256.011719 213.648438 256.019531 C 213.765625 256.03125 213.863281 256.082031 213.9375 256.175781 L 224.5625 268.003906 C 224.679688 268.136719 224.699219 268.285156 224.628906 268.445312 C 224.558594 268.609375 224.433594 268.691406 224.253906 268.691406 Z M 224.253906 268.691406 " fill-opacity="1" fill-rule="nonzero"/><path fill="#2d1929" d="M 216.195312 277.941406 C 215.882812 277.941406 216.570312 278.652344 206.269531 265.738281 C 206.199219 265.648438 206.167969 265.546875 206.183594 265.433594 C 206.195312 265.320312 206.246094 265.230469 206.335938 265.160156 C 206.421875 265.089844 206.523438 265.058594 206.636719 265.074219 C 206.75 265.085938 206.84375 265.136719 206.914062 265.226562 L 216.511719 277.269531 C 216.617188 277.40625 216.632812 277.546875 216.5625 277.703125 C 216.488281 277.859375 216.367188 277.9375 216.195312 277.941406 Z M 216.195312 277.941406 " fill-opacity="1" fill-rule="nonzero"/><path fill="#2d1929" d="M 209.113281 285.511719 C 208.824219 285.511719 209.363281 286.066406 200.1875 274.589844 C 200.105469 274.503906 200.066406 274.398438 200.074219 274.277344 C 200.082031 274.15625 200.136719 274.058594 200.230469 273.984375 C 200.324219 273.90625 200.433594 273.878906 200.550781 273.898438 C 200.671875 273.917969 200.765625 273.976562 200.832031 274.078125 L 209.4375 284.832031 C 209.550781 284.96875 209.570312 285.117188 209.492188 285.273438 C 209.417969 285.433594 209.289062 285.511719 209.113281 285.511719 Z M 209.113281 285.511719 " fill-opacity="1" fill-rule="nonzero"/></svg>