<svg xmlns="http://www.w3.org/2000/svg" xmlns:xlink="http://www.w3.org/1999/xlink" width="500" zoomAndPan="magnify" viewBox="0 0 375 374.999991" height="500" preserveAspectRatio="xMidYMid meet" version="1.0"><defs><clipPath id="6e6bdb4632"><path d="M 143 249 L 180 249 L 180 259.875 L 143 259.875 Z M 143 249 " clip-rule="nonzero"/></clipPath><clipPath id="b3fd9e7e68"><path d="M 195 249 L 232 249 L 232 259.875 L 195 259.875 Z M 195 249 " clip-rule="nonzero"/></clipPath><clipPath id="5999547c49"><path d="M 141 115.125 L 235 115.125 L 235 198 L 141 198 Z M 141 115.125 " clip-rule="nonzero"/></clipPath><clipPath id="584a3396ff"><path d="M 19.433594 0 L 355.433594 0 L 355.433594 375 L 19.433594 375 Z M 19.433594 0 " clip-rule="nonzero"/></clipPath></defs><g clip-path="url(#6e6bdb4632)"><path fill="#000000" d="M 143.558594 249.535156 L 179.746094 249.535156 L 179.746094 259.875 L 143.558594 259.875 Z M 143.558594 249.535156 " fill-opacity="1" fill-rule="nonzero"/></g><path fill="#000000" d="M 128.796875 181.554688 L 134.019531 197.21875 C 135.285156 195.695312 136.914062 194.609375 138.671875 193.9375 L 131.640625 172.84375 C 130.96875 170.800781 129.496094 169.199219 127.558594 168.292969 C 125.59375 167.390625 123.421875 167.339844 121.40625 168.140625 L 120.863281 168.347656 L 122.59375 174.34375 C 125.488281 175.867188 127.738281 178.402344 128.796875 181.554688 Z M 128.796875 181.554688 " fill-opacity="1" fill-rule="nonzero"/><path fill="#000000" d="M 148.726562 239.195312 L 148.726562 244.367188 L 174.574219 244.367188 L 174.574219 223.84375 C 174.574219 221.335938 173.359375 218.984375 171.320312 217.535156 L 146.011719 199.441406 C 143.453125 197.632812 139.914062 198.125 137.976562 200.578125 C 136.761719 202.078125 136.398438 204.015625 136.863281 205.773438 L 136.992188 206.1875 L 137.070312 206.421875 C 137.433594 207.351562 138.050781 208.203125 138.878906 208.875 L 158.085938 224.257812 C 159.222656 225.136719 159.402344 226.761719 158.5 227.875 C 157.621094 229.011719 155.992188 229.191406 154.878906 228.289062 L 135.648438 212.933594 C 133.789062 211.410156 132.519531 209.417969 131.902344 207.246094 L 123.886719 183.210938 C 123.164062 181.039062 121.535156 179.304688 119.46875 178.480469 C 117.582031 177.730469 115.511719 177.730469 113.652344 178.480469 L 113.109375 178.6875 L 124.429688 217.171875 C 124.871094 218.75 125.800781 220.09375 127.09375 221.101562 L 147.71875 237.15625 C 148.367188 237.644531 148.726562 238.394531 148.726562 239.195312 Z M 148.726562 239.195312 " fill-opacity="1" fill-rule="nonzero"/><path fill="#000000" d="M 261.347656 178.480469 C 259.488281 177.730469 257.417969 177.730469 255.53125 178.480469 C 253.464844 179.304688 251.835938 181.039062 251.113281 183.210938 L 243.074219 207.300781 C 242.480469 209.445312 241.210938 211.433594 239.351562 212.933594 L 220.121094 228.289062 C 219.007812 229.191406 217.378906 229.011719 216.5 227.875 C 215.597656 226.761719 215.777344 225.136719 216.914062 224.257812 L 236.121094 208.875 C 236.921875 208.230469 237.542969 207.402344 237.902344 206.472656 C 237.929688 206.371094 237.957031 206.265625 238.007812 206.164062 C 238.007812 206.136719 238.109375 205.878906 238.109375 205.828125 L 238.109375 205.773438 C 238.601562 204.015625 238.238281 202.078125 237.023438 200.578125 C 235.0625 198.125 231.546875 197.632812 228.988281 199.441406 L 203.679688 217.535156 C 201.640625 218.984375 200.425781 221.335938 200.425781 223.84375 L 200.425781 244.367188 L 226.273438 244.367188 L 226.273438 239.195312 C 226.273438 238.394531 226.632812 237.644531 227.28125 237.15625 L 247.90625 221.101562 C 249.199219 220.09375 250.128906 218.75 250.570312 217.171875 L 261.890625 178.6875 Z M 261.347656 178.480469 " fill-opacity="1" fill-rule="nonzero"/><path fill="#000000" d="M 240.980469 197.21875 L 246.203125 181.554688 C 247.261719 178.402344 249.511719 175.867188 252.40625 174.316406 L 254.136719 168.347656 L 253.59375 168.140625 C 251.578125 167.339844 249.40625 167.390625 247.441406 168.292969 C 245.503906 169.199219 244.03125 170.800781 243.359375 172.871094 L 236.328125 193.9375 C 238.085938 194.609375 239.714844 195.695312 240.980469 197.21875 Z M 240.980469 197.21875 " fill-opacity="1" fill-rule="nonzero"/><g clip-path="url(#b3fd9e7e68)"><path fill="#000000" d="M 195.253906 249.535156 L 231.441406 249.535156 L 231.441406 259.875 L 195.253906 259.875 Z M 195.253906 249.535156 " fill-opacity="1" fill-rule="nonzero"/></g><g clip-path="url(#5999547c49)"><path fill="#000000" d="M 234.027344 144.59375 L 234.027344 141.59375 C 234.027344 126.964844 222.164062 115.125 207.558594 115.125 L 206.238281 115.125 C 199.210938 115.125 192.488281 117.917969 187.527344 122.878906 C 182.5625 117.917969 175.816406 115.125 168.8125 115.125 L 167.492188 115.125 C 152.863281 115.125 141.023438 126.988281 141.023438 141.59375 L 141.023438 144.59375 C 141.023438 152.164062 144.257812 159.351562 149.917969 164.390625 L 187.550781 197.839844 L 225.1875 164.390625 C 230.847656 159.378906 234.078125 152.164062 234.078125 144.59375 Z M 203.007812 156.480469 L 192.667969 156.480469 L 192.667969 166.820312 L 182.332031 166.820312 L 182.332031 156.480469 L 171.992188 156.480469 L 171.992188 146.144531 L 182.332031 146.144531 L 182.332031 135.804688 L 192.667969 135.804688 L 192.667969 146.144531 L 203.007812 146.144531 Z M 203.007812 156.480469 " fill-opacity="1" fill-rule="nonzero"/></g><g clip-path="url(#584a3396ff)"><path fill="#769fb6" d="M 198.035156 370.878906 L 187.433594 374.957031 L 176.828125 370.878906 C 82 334.386719 19.433594 243.253906 19.433594 141.617188 L 19.433594 77.613281 C 65.445312 77.613281 110.082031 61.949219 146.011719 33.191406 L 187.433594 0.0429688 L 228.851562 33.191406 C 264.78125 61.949219 309.417969 77.613281 355.433594 77.613281 L 355.433594 141.617188 C 355.433594 243.253906 292.863281 334.386719 198.035156 370.878906 Z M 198.035156 370.878906 " fill-opacity="1" fill-rule="nonzero"/></g><path fill="#e9f1f2" d="M 290.816406 103.46875 C 290.816406 100.292969 291.238281 97.230469 291.953125 94.28125 C 263.722656 86.09375 237.09375 72.601562 213.847656 54.230469 C 206.917969 60.695312 197.652344 64.683594 187.433594 64.683594 C 177.210938 64.683594 167.945312 60.695312 161.015625 54.230469 C 137.769531 72.59375 111.132812 86.09375 82.910156 94.28125 C 83.628906 97.230469 84.046875 100.292969 84.046875 103.46875 C 84.046875 124.875 66.703125 142.238281 45.304688 142.25 C 45.542969 222.613281 90.652344 296.566406 160.085938 334.542969 C 167.097656 327.5625 176.757812 323.246094 187.433594 323.246094 C 198.105469 323.246094 207.765625 327.5625 214.777344 334.542969 C 284.210938 296.566406 329.320312 222.613281 329.558594 142.25 C 308.160156 142.238281 290.816406 124.875 290.816406 103.46875 Z M 290.816406 103.46875 " fill-opacity="1" fill-rule="nonzero"/><path fill="#608ea9" d="M 246.039062 117.105469 L 207.269531 117.105469 L 207.269531 155.890625 L 271.882812 155.890625 L 271.882812 142.964844 C 271.882812 128.683594 260.3125 117.105469 246.039062 117.105469 Z M 246.039062 117.105469 " fill-opacity="1" fill-rule="nonzero"/><path fill="#608ea9" d="M 284.808594 226.996094 L 284.808594 237.660156 C 263.613281 265.003906 231.113281 283.101562 194.34375 285.042969 L 194.34375 226.996094 C 194.34375 212.710938 205.910156 201.140625 220.191406 201.140625 L 258.960938 201.140625 C 273.242188 201.140625 284.808594 212.710938 284.808594 226.996094 Z M 284.808594 226.996094 " fill-opacity="1" fill-rule="nonzero"/><path fill="#f3a268" d="M 242.808594 226.996094 L 236.34375 226.996094 C 229.207031 226.996094 223.421875 221.210938 223.421875 214.066406 L 223.421875 194.675781 L 255.730469 194.675781 L 255.730469 214.066406 C 255.730469 221.210938 249.945312 226.996094 242.808594 226.996094 Z M 242.808594 226.996094 " fill-opacity="1" fill-rule="nonzero"/><path fill="#f6b98d" d="M 239.578125 207.601562 C 221.734375 207.601562 207.269531 193.128906 207.269531 175.28125 L 207.269531 155.890625 L 212.207031 155.890625 C 221.058594 155.890625 229.152344 150.886719 233.113281 142.964844 C 241.390625 151.242188 252.609375 155.890625 264.3125 155.890625 L 271.882812 155.890625 L 271.882812 175.28125 C 271.882812 193.128906 257.417969 207.601562 239.578125 207.601562 Z M 239.578125 207.601562 " fill-opacity="1" fill-rule="nonzero"/><path fill="#608ea9" d="M 177.828125 207.601562 L 126.136719 207.601562 C 110.273438 207.601562 97.421875 194.738281 97.421875 178.878906 L 97.421875 168.820312 C 97.421875 140.261719 120.566406 117.105469 149.113281 117.105469 C 177.660156 117.105469 200.808594 140.261719 200.808594 168.820312 L 200.808594 184.617188 C 200.808594 197.3125 190.519531 207.601562 177.828125 207.601562 Z M 177.828125 207.601562 " fill-opacity="1" fill-rule="nonzero"/><path fill="#a2bdcd" d="M 194.34375 226.996094 L 194.34375 285.171875 L 187.882812 285.171875 C 155.382812 285.171875 125.851562 272.5 103.882812 251.816406 L 103.882812 226.996094 C 103.882812 212.710938 115.449219 201.140625 129.730469 201.140625 L 168.5 201.140625 C 182.78125 201.140625 194.34375 212.710938 194.34375 226.996094 Z M 194.34375 226.996094 " fill-opacity="1" fill-rule="nonzero"/><path fill="#f3a268" d="M 152.34375 226.996094 L 145.882812 226.996094 C 138.742188 226.996094 132.960938 221.210938 132.960938 214.066406 L 132.960938 194.675781 L 165.269531 194.675781 L 165.269531 214.066406 C 165.269531 221.210938 159.484375 226.996094 152.34375 226.996094 Z M 152.34375 226.996094 " fill-opacity="1" fill-rule="nonzero"/><path fill="#f6b98d" d="M 149.113281 207.601562 C 134.839844 207.601562 123.269531 196.027344 123.269531 181.746094 L 123.269531 155.890625 C 131.191406 155.890625 138.425781 151.410156 141.96875 144.328125 L 142.652344 142.964844 C 150.929688 151.242188 162.148438 155.890625 173.851562 155.890625 L 174.960938 155.890625 L 174.960938 181.746094 C 174.960938 196.027344 163.386719 207.601562 149.113281 207.601562 Z M 149.113281 207.601562 " fill-opacity="1" fill-rule="nonzero"/><path fill="#608ea9" d="M 194.34375 142.964844 C 180.070312 142.964844 168.5 154.539062 168.5 168.820312 L 168.5 175.28125 L 220.191406 175.28125 L 220.191406 168.820312 C 220.191406 154.539062 208.621094 142.964844 194.34375 142.964844 Z M 194.34375 142.964844 " fill-opacity="1" fill-rule="nonzero"/><path fill="#f47c94" d="M 226.652344 233.460938 L 226.652344 278.835938 C 214.441406 282.972656 201.453125 285.171875 187.882812 285.171875 C 178.96875 285.171875 170.375 284.203125 162.039062 282.390625 L 162.039062 233.460938 C 162.039062 222.730469 170.695312 214.066406 181.421875 214.066406 L 207.269531 214.066406 C 217.996094 214.066406 226.652344 222.730469 226.652344 233.460938 Z M 226.652344 233.460938 " fill-opacity="1" fill-rule="nonzero"/><path fill="#f3a268" d="M 194.34375 233.460938 C 187.207031 233.460938 181.421875 227.675781 181.421875 220.53125 L 181.421875 201.140625 L 207.269531 201.140625 L 207.269531 220.53125 C 207.269531 227.675781 201.484375 233.460938 194.34375 233.460938 Z M 194.34375 233.460938 " fill-opacity="1" fill-rule="nonzero"/><path fill="#f6b98d" d="M 194.34375 214.066406 C 180.070312 214.066406 168.5 202.488281 168.5 188.210938 L 168.5 175.28125 C 176.421875 175.28125 183.660156 170.804688 187.199219 163.71875 L 187.882812 162.355469 C 196.160156 170.636719 207.378906 175.28125 219.082031 175.28125 L 220.191406 175.28125 L 220.191406 188.210938 C 220.191406 202.488281 208.621094 214.066406 194.34375 214.066406 Z M 194.34375 214.066406 " fill-opacity="1" fill-rule="nonzero"/><path fill="#d0d8da" d="M 329.585938 109.933594 C 329.585938 110.355469 329.542969 110.777344 329.460938 111.191406 C 329.378906 111.609375 329.257812 112.011719 329.09375 112.40625 C 328.929688 112.796875 328.730469 113.171875 328.496094 113.523438 C 328.261719 113.875 327.992188 114.203125 327.691406 114.503906 C 327.394531 114.800781 327.066406 115.070312 326.714844 115.304688 C 326.359375 115.542969 325.988281 115.742188 325.597656 115.902344 C 325.203125 116.066406 324.800781 116.1875 324.382812 116.273438 C 323.96875 116.355469 323.546875 116.394531 323.125 116.394531 C 322.699219 116.394531 322.28125 116.355469 321.863281 116.273438 C 321.449219 116.1875 321.042969 116.066406 320.652344 115.902344 C 320.257812 115.742188 319.886719 115.542969 319.535156 115.304688 C 319.179688 115.070312 318.855469 114.800781 318.554688 114.503906 C 318.253906 114.203125 317.988281 113.875 317.75 113.523438 C 317.515625 113.171875 317.316406 112.796875 317.15625 112.40625 C 316.992188 112.011719 316.871094 111.609375 316.785156 111.191406 C 316.703125 110.777344 316.664062 110.355469 316.664062 109.933594 C 316.664062 109.507812 316.703125 109.085938 316.785156 108.671875 C 316.871094 108.253906 316.992188 107.851562 317.15625 107.457031 C 317.316406 107.066406 317.515625 106.695312 317.75 106.339844 C 317.988281 105.988281 318.253906 105.660156 318.554688 105.359375 C 318.855469 105.0625 319.179688 104.792969 319.535156 104.558594 C 319.886719 104.320312 320.257812 104.121094 320.652344 103.960938 C 321.042969 103.796875 321.449219 103.675781 321.863281 103.59375 C 322.28125 103.507812 322.699219 103.46875 323.125 103.46875 C 323.546875 103.46875 323.96875 103.507812 324.382812 103.59375 C 324.800781 103.675781 325.203125 103.796875 325.597656 103.960938 C 325.988281 104.121094 326.359375 104.320312 326.714844 104.558594 C 327.066406 104.792969 327.394531 105.0625 327.691406 105.359375 C 327.992188 105.660156 328.261719 105.988281 328.496094 106.339844 C 328.730469 106.695312 328.929688 107.066406 329.09375 107.457031 C 329.257812 107.851562 329.378906 108.253906 329.460938 108.671875 C 329.542969 109.085938 329.585938 109.507812 329.585938 109.933594 Z M 329.585938 109.933594 " fill-opacity="1" fill-rule="nonzero"/><path fill="#b8bebf" d="M 193.894531 349.101562 C 193.894531 349.523438 193.851562 349.945312 193.769531 350.363281 C 193.6875 350.777344 193.5625 351.183594 193.402344 351.574219 C 193.238281 351.964844 193.039062 352.339844 192.804688 352.691406 C 192.570312 353.042969 192.300781 353.371094 192 353.671875 C 191.699219 353.972656 191.375 354.238281 191.023438 354.476562 C 190.667969 354.710938 190.296875 354.910156 189.90625 355.074219 C 189.511719 355.234375 189.109375 355.355469 188.691406 355.441406 C 188.277344 355.523438 187.855469 355.5625 187.433594 355.5625 C 187.007812 355.5625 186.585938 355.523438 186.171875 355.441406 C 185.753906 355.355469 185.351562 355.234375 184.960938 355.074219 C 184.566406 354.910156 184.195312 354.710938 183.84375 354.476562 C 183.488281 354.238281 183.164062 353.972656 182.863281 353.671875 C 182.5625 353.371094 182.296875 353.042969 182.058594 352.691406 C 181.824219 352.339844 181.625 351.964844 181.460938 351.574219 C 181.300781 351.183594 181.175781 350.777344 181.09375 350.363281 C 181.011719 349.945312 180.96875 349.523438 180.96875 349.101562 C 180.96875 348.675781 181.011719 348.253906 181.09375 347.839844 C 181.175781 347.421875 181.300781 347.019531 181.460938 346.625 C 181.625 346.234375 181.824219 345.863281 182.058594 345.507812 C 182.296875 345.15625 182.5625 344.828125 182.863281 344.53125 C 183.164062 344.230469 183.488281 343.960938 183.84375 343.726562 C 184.195312 343.488281 184.566406 343.289062 184.960938 343.128906 C 185.351562 342.964844 185.753906 342.84375 186.171875 342.761719 C 186.585938 342.679688 187.007812 342.636719 187.433594 342.636719 C 187.855469 342.636719 188.277344 342.679688 188.691406 342.761719 C 189.109375 342.84375 189.511719 342.964844 189.90625 343.128906 C 190.296875 343.289062 190.667969 343.488281 191.023438 343.726562 C 191.375 343.960938 191.699219 344.230469 192 344.53125 C 192.300781 344.828125 192.570312 345.15625 192.804688 345.507812 C 193.039062 345.863281 193.238281 346.234375 193.402344 346.625 C 193.5625 347.019531 193.6875 347.421875 193.769531 347.839844 C 193.851562 348.253906 193.894531 348.675781 193.894531 349.101562 Z M 193.894531 349.101562 " fill-opacity="1" fill-rule="nonzero"/><path fill="#d0d8da" d="M 58.199219 109.933594 C 58.199219 110.355469 58.160156 110.777344 58.078125 111.191406 C 57.992188 111.609375 57.871094 112.011719 57.710938 112.40625 C 57.546875 112.796875 57.347656 113.171875 57.113281 113.523438 C 56.875 113.875 56.609375 114.203125 56.308594 114.503906 C 56.007812 114.800781 55.683594 115.070312 55.328125 115.304688 C 54.976562 115.542969 54.605469 115.742188 54.210938 115.902344 C 53.820312 116.066406 53.417969 116.1875 53 116.273438 C 52.582031 116.355469 52.164062 116.394531 51.738281 116.394531 C 51.316406 116.394531 50.894531 116.355469 50.480469 116.273438 C 50.0625 116.1875 49.660156 116.066406 49.265625 115.902344 C 48.875 115.742188 48.503906 115.542969 48.148438 115.304688 C 47.796875 115.070312 47.46875 114.800781 47.171875 114.503906 C 46.871094 114.203125 46.601562 113.875 46.367188 113.523438 C 46.132812 113.171875 45.933594 112.796875 45.769531 112.40625 C 45.609375 112.011719 45.484375 111.609375 45.402344 111.191406 C 45.320312 110.777344 45.277344 110.355469 45.277344 109.933594 C 45.277344 109.507812 45.320312 109.085938 45.402344 108.671875 C 45.484375 108.253906 45.609375 107.851562 45.769531 107.457031 C 45.933594 107.066406 46.132812 106.695312 46.367188 106.339844 C 46.601562 105.988281 46.871094 105.660156 47.171875 105.359375 C 47.46875 105.0625 47.796875 104.792969 48.148438 104.558594 C 48.503906 104.320312 48.875 104.121094 49.265625 103.960938 C 49.660156 103.796875 50.0625 103.675781 50.480469 103.59375 C 50.894531 103.507812 51.316406 103.46875 51.738281 103.46875 C 52.164062 103.46875 52.582031 103.507812 53 103.59375 C 53.417969 103.675781 53.820312 103.796875 54.210938 103.960938 C 54.605469 104.121094 54.976562 104.320312 55.328125 104.558594 C 55.683594 104.792969 56.007812 105.0625 56.308594 105.359375 C 56.609375 105.660156 56.875 105.988281 57.113281 106.339844 C 57.347656 106.695312 57.546875 107.066406 57.710938 107.457031 C 57.871094 107.851562 57.992188 108.253906 58.078125 108.671875 C 58.160156 109.085938 58.199219 109.507812 58.199219 109.933594 Z M 58.199219 109.933594 " fill-opacity="1" fill-rule="nonzero"/><path fill="#d0d8da" d="M 193.894531 38.828125 C 193.894531 39.253906 193.851562 39.671875 193.769531 40.089844 C 193.6875 40.503906 193.5625 40.910156 193.402344 41.300781 C 193.238281 41.695312 193.039062 42.066406 192.804688 42.417969 C 192.570312 42.773438 192.300781 43.097656 192 43.398438 C 191.699219 43.699219 191.375 43.964844 191.023438 44.203125 C 190.667969 44.4375 190.296875 44.636719 189.90625 44.800781 C 189.511719 44.960938 189.109375 45.085938 188.691406 45.167969 C 188.277344 45.25 187.855469 45.292969 187.433594 45.292969 C 187.007812 45.292969 186.585938 45.25 186.171875 45.167969 C 185.753906 45.085938 185.351562 44.960938 184.960938 44.800781 C 184.566406 44.636719 184.195312 44.4375 183.84375 44.203125 C 183.488281 43.964844 183.164062 43.699219 182.863281 43.398438 C 182.5625 43.097656 182.296875 42.773438 182.058594 42.417969 C 181.824219 42.066406 181.625 41.695312 181.460938 41.300781 C 181.300781 40.910156 181.175781 40.503906 181.09375 40.089844 C 181.011719 39.671875 180.96875 39.253906 180.96875 38.828125 C 180.96875 38.402344 181.011719 37.984375 181.09375 37.566406 C 181.175781 37.148438 181.300781 36.746094 181.460938 36.355469 C 181.625 35.960938 181.824219 35.589844 182.058594 35.238281 C 182.296875 34.882812 182.5625 34.558594 182.863281 34.257812 C 183.164062 33.957031 183.488281 33.6875 183.84375 33.453125 C 184.195312 33.21875 184.566406 33.019531 184.960938 32.855469 C 185.351562 32.691406 185.753906 32.570312 186.171875 32.488281 C 186.585938 32.40625 187.007812 32.363281 187.433594 32.363281 C 187.855469 32.363281 188.277344 32.40625 188.691406 32.488281 C 189.109375 32.570312 189.511719 32.691406 189.90625 32.855469 C 190.296875 33.019531 190.667969 33.21875 191.023438 33.453125 C 191.375 33.6875 191.699219 33.957031 192 34.257812 C 192.300781 34.558594 192.570312 34.882812 192.804688 35.238281 C 193.039062 35.589844 193.238281 35.960938 193.402344 36.355469 C 193.5625 36.746094 193.6875 37.148438 193.769531 37.566406 C 193.851562 37.984375 193.894531 38.402344 193.894531 38.828125 Z M 193.894531 38.828125 " fill-opacity="1" fill-rule="nonzero"/><path fill="#ef9050" d="M 223.421875 209.839844 C 228.191406 212.621094 233.664062 214.324219 239.578125 214.324219 C 245.488281 214.324219 250.960938 212.621094 255.730469 209.839844 L 255.730469 203.375 C 250.960938 206.15625 245.488281 207.863281 239.578125 207.863281 C 233.664062 207.863281 228.191406 206.15625 223.421875 203.375 Z M 223.421875 209.839844 " fill-opacity="1" fill-rule="nonzero"/><path fill="#ef9050" d="M 132.960938 208.5 C 137.398438 212.089844 142.96875 214.324219 149.113281 214.324219 C 155.261719 214.324219 160.828125 212.089844 165.269531 208.5 L 165.269531 202.039062 C 160.828125 205.625 155.261719 207.863281 149.113281 207.863281 C 142.96875 207.863281 137.398438 205.625 132.960938 202.039062 Z M 132.960938 208.5 " fill-opacity="1" fill-rule="nonzero"/><path fill="#4f7992" d="M 207.269531 139.5 L 207.269531 146.808594 C 211.003906 148.980469 214.136719 152.058594 216.398438 155.722656 C 218.582031 155.320312 220.671875 154.617188 222.621094 153.640625 C 219.191406 147.402344 213.828125 142.375 207.269531 139.5 Z M 207.269531 139.5 " fill-opacity="1" fill-rule="nonzero"/><path fill="#f3a268" d="M 226.652344 169.078125 C 226.652344 163.472656 225.148438 158.238281 222.621094 153.648438 C 220.664062 154.625 218.578125 155.328125 216.398438 155.730469 C 218.789062 159.613281 220.191406 164.171875 220.191406 169.085938 L 220.191406 188.476562 C 220.191406 192.335938 219.300781 195.96875 217.773438 199.238281 C 218.609375 200 219.460938 200.730469 220.371094 201.402344 C 221.199219 202.019531 222.046875 202.582031 222.925781 203.117188 C 225.257812 198.625 226.652344 193.660156 226.652344 188.476562 Z M 226.652344 169.078125 " fill-opacity="1" fill-rule="nonzero"/><path fill="#4f7992" d="M 223.421875 214.324219 L 223.421875 213.609375 C 221.789062 212.289062 220.015625 211.125 218.09375 210.234375 C 220.054688 208.101562 221.601562 205.65625 222.925781 203.105469 C 222.039062 202.566406 221.191406 202.003906 220.371094 201.390625 L 220.191406 201.390625 C 218.898438 201.390625 217.664062 201.585938 216.429688 201.773438 C 214.167969 205.464844 211.023438 208.554688 207.269531 210.738281 L 207.269531 214.324219 C 217.996094 214.324219 226.652344 222.988281 226.652344 233.71875 L 226.652344 279.09375 C 224.792969 279.730469 222.898438 280.277344 221.007812 280.820312 C 225.121094 279.671875 229.1875 278.382812 233.113281 276.828125 L 233.113281 233.71875 C 233.113281 231.203125 232.738281 228.773438 232.066406 226.472656 C 227.042969 224.695312 223.421875 219.957031 223.421875 214.324219 Z M 223.421875 214.324219 " fill-opacity="1" fill-rule="nonzero"/><path fill="#4f7992" d="M 193.867188 143.265625 C 192.644531 141.148438 191.28125 139.128906 189.777344 137.214844 C 178.910156 138.773438 169.855469 145.769531 165.28125 155.300781 C 167.523438 155.75 169.816406 155.96875 172.132812 156.058594 C 176.542969 148.5625 184.5625 143.441406 193.867188 143.265625 Z M 193.867188 143.265625 " fill-opacity="1" fill-rule="nonzero"/><path fill="#f3a268" d="M 170.042969 197.066406 C 169.074219 194.378906 168.5 191.5 168.5 188.464844 L 168.5 169.070312 C 168.5 164.300781 169.875 159.886719 172.132812 156.058594 C 169.816406 155.96875 167.523438 155.742188 165.28125 155.300781 C 163.273438 159.492188 162.039062 164.113281 162.039062 169.078125 L 162.039062 188.46875 C 162.039062 193.246094 163.238281 197.847656 165.238281 202.0625 C 167.046875 200.609375 168.6875 198.960938 170.042969 197.066406 Z M 170.042969 197.066406 " fill-opacity="1" fill-rule="nonzero"/><path fill="#769fb6" d="M 170.042969 197.066406 C 168.695312 198.941406 167.066406 200.582031 165.269531 202.03125 L 165.269531 202.113281 C 166.664062 205.050781 168.382812 207.824219 170.597656 210.234375 C 168.675781 211.125 166.902344 212.289062 165.269531 213.609375 L 165.269531 214.324219 C 165.269531 219.957031 161.648438 224.699219 156.628906 226.472656 C 155.957031 228.773438 155.578125 231.203125 155.578125 233.71875 L 155.578125 281.015625 C 157.707031 281.597656 159.859375 282.140625 162.039062 282.613281 L 162.039062 233.71875 C 162.039062 222.988281 170.695312 214.324219 181.421875 214.324219 L 181.421875 210.738281 C 176.175781 207.679688 172.125 202.851562 170.042969 197.066406 Z M 170.042969 197.066406 " fill-opacity="1" fill-rule="nonzero"/><path fill="#ef9050" d="M 165.269531 214.324219 L 165.269531 213.609375 C 161.203125 216.886719 158.128906 221.332031 156.628906 226.472656 C 161.648438 224.695312 165.269531 219.957031 165.269531 214.324219 Z M 165.269531 214.324219 " fill-opacity="1" fill-rule="nonzero"/><path fill="#ef9050" d="M 223.421875 213.609375 L 223.421875 214.324219 C 223.421875 219.957031 227.042969 224.695312 232.066406 226.472656 C 230.5625 221.332031 227.488281 216.886719 223.421875 213.609375 Z M 223.421875 213.609375 " fill-opacity="1" fill-rule="nonzero"/></svg>